<?xml version="1.0" encoding="UTF-8" standalone="no"?>
<!-- Created with Inkscape (http://www.inkscape.org/) -->

<svg
   width="4.292222mm"
   height="4.2934394mm"
   viewBox="0 0 4.292222 4.2934394"
   version="1.1"
   id="svg1"
   inkscape:version="1.3 (0e150ed6c4, 2023-07-21)"
   sodipodi:docname="gameAssets.svg"
   xmlns:inkscape="http://www.inkscape.org/namespaces/inkscape"
   xmlns:sodipodi="http://sodipodi.sourceforge.net/DTD/sodipodi-0.dtd"
   xmlns="http://www.w3.org/2000/svg"
   xmlns:svg="http://www.w3.org/2000/svg">
  <sodipodi:namedview
     id="namedview1"
     pagecolor="#505050"
     bordercolor="#ffffff"
     borderopacity="1"
     inkscape:showpageshadow="0"
     inkscape:pageopacity="0"
     inkscape:pagecheckerboard="1"
     inkscape:deskcolor="#505050"
     inkscape:document-units="mm"
     showguides="true"
     inkscape:zoom="128"
     inkscape:cx="543.82031"
     inkscape:cy="672.91797"
     inkscape:window-width="2560"
     inkscape:window-height="1521"
     inkscape:window-x="-9"
     inkscape:window-y="-9"
     inkscape:window-maximized="1"
     inkscape:current-layer="g556"
     showgrid="false">
    <sodipodi:guide
       position="158.64153,305.06642"
       orientation="1,0"
       id="guide366"
       inkscape:locked="false" />
  </sodipodi:namedview>
  <defs
     id="defs1">
    <linearGradient
       id="swatch70"
       inkscape:swatch="solid">
      <stop
         style="stop-color:#000000;stop-opacity:1;"
         offset="0"
         id="stop70" />
    </linearGradient>
    <linearGradient
       id="swatch69"
       inkscape:swatch="solid">
      <stop
         style="stop-color:#5f5700;stop-opacity:1;"
         offset="0"
         id="stop69" />
    </linearGradient>
  </defs>
  <g
     inkscape:groupmode="layer"
     id="layer2"
     inkscape:label="Enemy1"
     transform="translate(-16,-80.000005)">
    <path
       id="path458"
       style="fill:#ffffff;fill-opacity:0;stroke:#ffffff;stroke-width:0.3;stroke-linecap:butt;stroke-linejoin:miter;stroke-dasharray:none;paint-order:markers fill stroke"
       d="m 16.731271,80.731751 a 2,2 0 0 0 -0.34604,0.467357 l 0.005,0.0018 a 2,2 0 0 0 -0.001,0.0018 l 0.67783,0.251762 -10e-4,-0.0033 0.005,0.0022 -0.22363,-0.602196 0.60219,0.220707 -0.001,-0.0033 0.005,0.0022 -0.2525,-0.687328 a 2,2 0 0 0 -0.46955,0.348234 z m 0.72205,0.339094 0.001,0.0033 -0.005,-0.0022 0.1363,0.371621 -0.0362,0.0961 0.0669,-0.02448 -0.0267,-0.07272 0.10341,-0.281 -0.003,-0.0011 7.3e-4,-0.0022 z m 0.23971,0.09062 0.43995,0.161515 -0.51669,0.192204 0.003,0.0069 -0.004,0.0015 0.0559,0.152373 -0.14689,-0.05408 0.0274,-0.07491 -0.11876,0.04348 0.0859,0.03179 -0.1922,0.518877 0.003,0.0091 -0.002,0.0066 0.1933,0.519973 0.14872,-0.05445 -0.0533,0.144698 0.0106,0.004 -0.001,0.0026 0.52108,0.192933 0.52107,-0.192936 -0.003,-0.0077 0.004,-0.0015 -0.0541,-0.145435 0.15786,0.05773 0.1933,-0.519973 -0.003,-0.0091 0.002,-0.0066 -0.19037,-0.518515 0.0862,-0.03216 -0.11875,-0.04348 0.023,0.06395 -0.13702,0.05006 0.0504,-0.137394 -0.0102,-0.0037 7.3e-4,-0.0022 -0.51887,-0.190749 0.45054,-0.165528 -0.37089,-1.009619 a 2,2 0 0 0 -0.1659,3e-6 z m 0.90767,0 0.0998,0.271499 -0.0314,0.08478 0.0771,0.02813 -0.0376,-0.102678 0.13593,-0.371251 -0.0113,0.004 0.005,-0.01498 -0.23824,0.08843 0.004,0.0106 z m 0.23788,-0.100485 0.0113,-0.004 -0.005,0.01498 0.59305,-0.217416 -0.21632,0.589033 0.0113,-0.004 -0.005,0.01498 0.68477,-0.254322 a 2,2 0 0 0 -0.34713,-0.467725 2,2 0 0 0 -0.46809,-0.346773 l -3.7e-4,0.0011 a 2,2 0 0 0 -0.006,-0.0037 z m 0.38843,0.393546 -0.0113,0.004 0.005,-0.01498 -0.3771,0.138125 0.0205,0.0073 -0.004,0.0015 0.26967,0.0994 -0.16553,0.451279 0.16663,0.453838 1.00962,-0.37089 a 2,2 0 0 0 0,-0.165899 l -1.00158,-0.367961 z m -0.0954,1.140438 -0.28757,0.105596 0.0102,0.0037 -0.003,0.0011 0.36613,0.134472 -0.001,-0.0033 0.005,0.0022 z m 0.0895,0.243721 0.001,0.0033 -0.005,-0.0022 0.22181,0.604021 -0.60037,-0.222532 0.001,0.0033 -0.005,-0.0022 0.25579,0.688433 a 2,2 0 0 0 0.47503,-0.350063 2,2 0 0 0 0.34568,-0.466263 l -0.005,-0.0018 a 2,2 0 0 0 10e-4,-0.0018 z m -0.38661,0.383678 -0.001,-0.0033 0.005,0.0022 -0.13593,-0.366144 -0.10231,0.277711 0.003,0.0011 -7.4e-4,0.0022 z m -0.23167,-0.08623 -0.45602,-0.16955 -0.45603,0.169549 0.37344,1.005601 a 2,2 0 0 0 0.16517,-10e-7 z m -0.91205,-10e-7 -0.004,-0.0106 0.004,-0.0015 -0.10341,-0.278811 -0.13447,0.366143 0.0113,-0.004 -0.005,0.01498 z m -0.23167,0.08623 -0.0113,0.004 0.005,-0.01498 -0.59306,0.217417 0.21596,-0.588673 -0.0113,0.004 0.006,-0.01534 -0.68843,0.255786 a 2,2 0 0 0 0.35006,0.475025 2,2 0 0 0 0.46626,0.345679 l 3.7e-4,-0.0011 a 2,2 0 0 0 0.006,0.0037 z m -0.38843,-0.393538 0.0113,-0.004 -0.005,0.01498 0.36577,-0.1341 -0.0197,-0.0073 0.004,-0.0015 -0.2693,-0.09976 z m 0.0862,-0.231674 0.16955,-0.456029 -0.167,-0.449811 0.27333,-0.100857 -0.0102,-0.0037 0.004,-0.0015 -0.35554,-0.131912 0.001,0.0033 -0.005,-0.0022 0.0859,0.232039 -1.00122,0.371985 a 2,2 0 0 0 10e-6,0.165158 z m 0.28538,0.108531 0.10305,0.038 -0.0245,-0.06687 z m 0.14543,0.139581 0.0285,-0.0782 -0.0669,-0.02448 z m 1.11486,0.0099 0.0435,-0.118756 -0.0771,0.02814 z m 0.14836,-0.149817 -0.0782,-0.0285 -0.0245,0.06687 z"
       inkscape:export-filename="Finished\CircleEnemies.svg"
       inkscape:export-xdpi="96"
       inkscape:export-ydpi="96" />
  </g>
</svg>
