<?xml version="1.0" encoding="UTF-8" standalone="no"?>
<!-- Created with Inkscape (http://www.inkscape.org/) -->

<svg
   width="4.9688888mm"
   height="4.9695854mm"
   viewBox="0 0 4.9688888 4.9695854"
   version="1.1"
   id="svg1"
   inkscape:version="1.3 (0e150ed6c4, 2023-07-21)"
   sodipodi:docname="gameAssets.svg"
   xmlns:inkscape="http://www.inkscape.org/namespaces/inkscape"
   xmlns:sodipodi="http://sodipodi.sourceforge.net/DTD/sodipodi-0.dtd"
   xmlns="http://www.w3.org/2000/svg"
   xmlns:svg="http://www.w3.org/2000/svg">
  <sodipodi:namedview
     id="namedview1"
     pagecolor="#505050"
     bordercolor="#ffffff"
     borderopacity="1"
     inkscape:showpageshadow="0"
     inkscape:pageopacity="0"
     inkscape:pagecheckerboard="1"
     inkscape:deskcolor="#505050"
     inkscape:document-units="mm"
     showguides="true"
     inkscape:zoom="128"
     inkscape:cx="543.82031"
     inkscape:cy="672.91797"
     inkscape:window-width="2560"
     inkscape:window-height="1521"
     inkscape:window-x="-9"
     inkscape:window-y="-9"
     inkscape:window-maximized="1"
     inkscape:current-layer="g556"
     showgrid="false">
    <sodipodi:guide
       position="164.64153,325.06643"
       orientation="1,0"
       id="guide366"
       inkscape:locked="false" />
  </sodipodi:namedview>
  <defs
     id="defs1">
    <linearGradient
       id="swatch70"
       inkscape:swatch="solid">
      <stop
         style="stop-color:#000000;stop-opacity:1;"
         offset="0"
         id="stop70" />
    </linearGradient>
    <linearGradient
       id="swatch69"
       inkscape:swatch="solid">
      <stop
         style="stop-color:#5f5700;stop-opacity:1;"
         offset="0"
         id="stop69" />
    </linearGradient>
  </defs>
  <g
     inkscape:groupmode="layer"
     id="layer2"
     inkscape:label="Enemy1"
     transform="translate(-9.9999993,-100.00002)">
    <path
       id="path500"
       style="fill:#ffffff;fill-opacity:0;stroke:#ffffff;stroke-width:0.3;stroke-linecap:butt;stroke-linejoin:miter;stroke-dasharray:none;paint-order:markers fill stroke"
       d="m 12.072662,101.41174 -0.16227,0.44183 -0.4532,0.16846 0.19792,0.42789 -0.20102,0.43873 0.44235,0.16226 0.16795,0.45217 0.42736,-0.19792 0.43873,0.20102 0.16227,-0.44183 0.4532,-0.16847 -0.19792,-0.42736 0.20102,-0.43873 -0.44235,-0.16227 -0.16795,-0.45268 -0.42736,0.19792 z" />
    <path
       id="path501"
       style="fill:#ffffff;fill-opacity:0;stroke:#ffffff;stroke-width:0.3;stroke-linecap:butt;stroke-linejoin:miter;stroke-dasharray:none;paint-order:markers fill stroke"
       d="m 12.456682,101.32819 -0.30359,0.35967 -0.48349,0.003 0.0396,0.46978 -0.33895,0.34352 0.36016,0.30377 0.003,0.48235 0.46928,-0.0398 0.34352,0.33895 0.30358,-0.35971 0.48349,-0.003 -0.0398,-0.46928 0.33896,-0.34351 -0.36018,-0.30377 -0.003,-0.48283 -0.46928,0.0398 z" />
    <path
       id="path502"
       style="fill:#ffffff;fill-opacity:0;stroke:#ffffff;stroke-width:0.3;stroke-linecap:butt;stroke-linejoin:miter;stroke-dasharray:none;paint-order:markers fill stroke"
       d="m 10.885741,104.08696 0.94033,-0.0432 0.66186,0.70502 0.63557,-0.69649 0.9647,0.0306 -0.044,-0.94129 0.70373,-0.65984 -0.69612,-0.63455 0.0307,-0.96469 -0.94038,0.0434 -0.66186,-0.70502 -0.63455,0.6961 -0.9647,-0.0306 0.0444,0.94131 -0.70446,0.66051 0.69614,0.63454 z" />
  </g>
</svg>
