<?xml version="1.0" encoding="UTF-8" standalone="no"?>
<!-- Created with Inkscape (http://www.inkscape.org/) -->

<svg
   width="4.6041579mm"
   height="4.6037002mm"
   viewBox="0 0 4.6041579 4.6037002"
   version="1.1"
   id="svg1"
   inkscape:version="1.3 (0e150ed6c4, 2023-07-21)"
   sodipodi:docname="gameAssets.svg"
   xmlns:inkscape="http://www.inkscape.org/namespaces/inkscape"
   xmlns:sodipodi="http://sodipodi.sourceforge.net/DTD/sodipodi-0.dtd"
   xmlns="http://www.w3.org/2000/svg"
   xmlns:svg="http://www.w3.org/2000/svg">
  <sodipodi:namedview
     id="namedview1"
     pagecolor="#505050"
     bordercolor="#ffffff"
     borderopacity="1"
     inkscape:showpageshadow="0"
     inkscape:pageopacity="0"
     inkscape:pagecheckerboard="1"
     inkscape:deskcolor="#505050"
     inkscape:document-units="mm"
     showguides="true"
     inkscape:zoom="128"
     inkscape:cx="543.82031"
     inkscape:cy="672.91797"
     inkscape:window-width="2560"
     inkscape:window-height="1521"
     inkscape:window-x="-9"
     inkscape:window-y="-9"
     inkscape:window-maximized="1"
     inkscape:current-layer="g556"
     showgrid="false">
    <sodipodi:guide
       position="158.64153,325.06641"
       orientation="1,0"
       id="guide366"
       inkscape:locked="false" />
  </sodipodi:namedview>
  <defs
     id="defs1">
    <linearGradient
       id="swatch70"
       inkscape:swatch="solid">
      <stop
         style="stop-color:#000000;stop-opacity:1;"
         offset="0"
         id="stop70" />
    </linearGradient>
    <linearGradient
       id="swatch69"
       inkscape:swatch="solid">
      <stop
         style="stop-color:#5f5700;stop-opacity:1;"
         offset="0"
         id="stop69" />
    </linearGradient>
  </defs>
  <g
     inkscape:groupmode="layer"
     id="layer2"
     inkscape:label="Enemy1"
     transform="translate(-16,-99.999997)">
    <path
       id="path493"
       style="fill:#ffffff;fill-opacity:0;stroke:#ffffff;stroke-width:0.3;stroke-linecap:butt;stroke-linejoin:miter;stroke-dasharray:none;paint-order:markers fill stroke"
       d="m 17.451224,100.20429 -0.32711,0.88263 -0.90796,0.33383 0.39326,0.85628 -0.40514,0.87592 0.88366,0.32711 0.3328,0.9064 0.85628,-0.39274 0.8754,0.40566 0.32763,-0.88263 0.90743,-0.33383 -0.39274,-0.85731 0.40515,-0.87592 -0.88367,-0.32711 -0.3328,-0.90589 -0.85576,0.39326 z m 0.42116,1.05006 0.22634,0.10387 -0.14521,0.17209 -0.18293,0.001 z m 0.86662,0.003 0.0868,0.23306 -0.22531,0.0191 -0.12971,-0.12815 z m 0.33331,0.51367 0.27698,0.1018 -0.10335,0.22583 -0.1726,-0.14522 z m -1.58078,0.007 0.0191,0.22479 -0.12868,0.13022 -0.12402,-0.2682 z m 1.73012,0.69298 0.12454,0.2682 -0.23306,0.0863 -0.0191,-0.22531 z m -1.86293,0.0331 0.1726,0.14573 10e-4,0.18293 -0.2775,-0.1018 z m 1.47433,0.5674 -0.10181,0.27802 -0.22634,-0.10387 0.14625,-0.17311 z m -0.82941,0.0222 0.13022,0.12816 -0.26871,0.12454 -0.0868,-0.23357 z"
       inkscape:export-filename="Finished\OctogonEnemies.svg"
       inkscape:export-xdpi="96"
       inkscape:export-ydpi="96" />
  </g>
</svg>
