<?xml version="1.0" encoding="UTF-8" standalone="no"?>
<!-- Created with Inkscape (http://www.inkscape.org/) -->

<svg
   width="4.5653706mm"
   height="4.5653706mm"
   viewBox="0 0 4.5653706 4.5653706"
   version="1.1"
   id="svg1"
   inkscape:version="1.3 (0e150ed6c4, 2023-07-21)"
   sodipodi:docname="gameAssets.svg"
   xmlns:inkscape="http://www.inkscape.org/namespaces/inkscape"
   xmlns:sodipodi="http://sodipodi.sourceforge.net/DTD/sodipodi-0.dtd"
   xmlns="http://www.w3.org/2000/svg"
   xmlns:svg="http://www.w3.org/2000/svg">
  <sodipodi:namedview
     id="namedview1"
     pagecolor="#505050"
     bordercolor="#ffffff"
     borderopacity="1"
     inkscape:showpageshadow="0"
     inkscape:pageopacity="0"
     inkscape:pagecheckerboard="1"
     inkscape:deskcolor="#505050"
     inkscape:document-units="mm"
     showguides="true"
     inkscape:zoom="128"
     inkscape:cx="543.82031"
     inkscape:cy="672.91797"
     inkscape:window-width="2560"
     inkscape:window-height="1521"
     inkscape:window-x="-9"
     inkscape:window-y="-9"
     inkscape:window-maximized="1"
     inkscape:current-layer="g556"
     showgrid="false">
    <sodipodi:guide
       position="140.64153,265.06641"
       orientation="1,0"
       id="guide366"
       inkscape:locked="false" />
  </sodipodi:namedview>
  <defs
     id="defs1">
    <linearGradient
       id="swatch70"
       inkscape:swatch="solid">
      <stop
         style="stop-color:#000000;stop-opacity:1;"
         offset="0"
         id="stop70" />
    </linearGradient>
    <linearGradient
       id="swatch69"
       inkscape:swatch="solid">
      <stop
         style="stop-color:#5f5700;stop-opacity:1;"
         offset="0"
         id="stop69" />
    </linearGradient>
  </defs>
  <g
     inkscape:groupmode="layer"
     id="layer2"
     inkscape:label="Enemy1"
     transform="translate(-34.000001,-40.000003)">
    <path
       id="path480"
       style="fill:#ffffff;fill-opacity:0;stroke:#ffffff;stroke-width:0.3;stroke-linecap:butt;stroke-linejoin:miter;stroke-dasharray:none;paint-order:markers fill stroke"
       d="M 34.15,44.111116 34.71327,43.850157 35.43623,42.273503 34.71431,40.712872 34.15,40.453975 Z m 0.56431,-3.398244 0.72192,1.560631 0.46612,-1.01596 z m 1.18804,0.544671 -0.46612,1.01596 0.47387,1.023193 0.36277,-0.167953 0.39067,0.178798 0.4656,-1.015435 -0.47386,-1.023715 -0.36278,0.167954 z m 0.75292,0.0109 0.47388,1.023706 0.72295,-1.577676 z m 1.19683,-0.55397 -0.72295,1.577676 0.72192,1.560111 0.5643,0.258903 v -3.65714 z m -10e-4,3.137789 -0.72192,-1.56011 -0.46561,1.015443 z M 35.91013,43.296743 35.43626,42.27355 34.7133,43.850204 Z M 34.45419,40.15 l 0.26096,0.563273 1.57665,0.722953 1.56063,-0.721919 0.2589,-0.564307 z m 3.39824,0.564307 -1.56063,0.721919 1.01596,0.466122 z m -0.54467,1.188041 -1.01596,-0.466122 -1.02319,0.473873 0.16795,0.362769 -0.1788,0.390674 1.01544,0.465604 1.02371,-0.473872 -0.16795,-0.362769 z m -0.0109,0.752926 -1.02371,0.473872 1.57768,0.722954 z m 0.55397,1.196826 -1.57768,-0.722954 -1.56011,0.72192 -0.2589,0.564307 h 3.65714 z m -3.13779,-10e-4 1.56011,-0.72192 -1.01544,-0.465604 z m 0.55552,-1.940967 1.02319,-0.473873 -1.57665,-0.722953 z"
       inkscape:export-filename="Finished\SquareEnemies_EB.png"
       inkscape:export-xdpi="96"
       inkscape:export-ydpi="96" />
  </g>
</svg>
