<?xml version="1.0" encoding="UTF-8" standalone="no"?>
<!-- Created with Inkscape (http://www.inkscape.org/) -->

<svg
   width="4.5653706mm"
   height="4.5653749mm"
   viewBox="0 0 4.5653706 4.5653749"
   version="1.1"
   id="svg1"
   inkscape:version="1.3 (0e150ed6c4, 2023-07-21)"
   sodipodi:docname="gameAssets.svg"
   xmlns:inkscape="http://www.inkscape.org/namespaces/inkscape"
   xmlns:sodipodi="http://sodipodi.sourceforge.net/DTD/sodipodi-0.dtd"
   xmlns="http://www.w3.org/2000/svg"
   xmlns:svg="http://www.w3.org/2000/svg">
  <sodipodi:namedview
     id="namedview1"
     pagecolor="#505050"
     bordercolor="#ffffff"
     borderopacity="1"
     inkscape:showpageshadow="0"
     inkscape:pageopacity="0"
     inkscape:pagecheckerboard="1"
     inkscape:deskcolor="#505050"
     inkscape:document-units="mm"
     showguides="true"
     inkscape:zoom="128"
     inkscape:cx="543.82031"
     inkscape:cy="672.91797"
     inkscape:window-width="2560"
     inkscape:window-height="1521"
     inkscape:window-x="-9"
     inkscape:window-y="-9"
     inkscape:window-maximized="1"
     inkscape:current-layer="g556"
     showgrid="false">
    <sodipodi:guide
       position="152.64153,277.06641"
       orientation="1,0"
       id="guide366"
       inkscape:locked="false" />
  </sodipodi:namedview>
  <defs
     id="defs1">
    <linearGradient
       id="swatch70"
       inkscape:swatch="solid">
      <stop
         style="stop-color:#000000;stop-opacity:1;"
         offset="0"
         id="stop70" />
    </linearGradient>
    <linearGradient
       id="swatch69"
       inkscape:swatch="solid">
      <stop
         style="stop-color:#5f5700;stop-opacity:1;"
         offset="0"
         id="stop69" />
    </linearGradient>
  </defs>
  <g
     inkscape:groupmode="layer"
     id="layer2"
     inkscape:label="Enemy1"
     transform="translate(-21.999999,-51.999999)">
    <path
       id="path497"
       style="fill:#ffffff;fill-opacity:0;stroke:#ffffff;stroke-width:0.3;stroke-linecap:butt;stroke-linejoin:miter;stroke-dasharray:none;paint-order:markers fill stroke"
       d="m 22.45437,52.150001 0.25787,0.562239 0.21497,0.09819 a 2,2 0 0 1 0.77308,-0.44235 l -0.0997,-0.218074 z M 22.71224,52.71224 22.15,52.454375 v 1.146183 l 0.21497,0.0987 a 2,2 0 0 1 0.44546,-0.772046 z m 2.24224,-0.562239 -0.10077,0.218074 a 2,2 0 0 1 1.33635,1.335836 l 0.22531,-0.103353 v -1.146183 l -0.5643,0.258899 0.26045,-0.563273 z m 1.23868,2.701643 a 2,2 0 0 1 -0.44441,0.779798 l 0.10077,0.218074 0.56585,0.262 V 54.95448 Z m -0.34364,0.997872 -0.21808,-0.100769 a 2,2 0 0 1 -0.77825,0.447518 l 0.10129,0.219108 h 1.15704 z M 22.36187,54.856812 22.15,54.954482 v 1.157036 l 0.56327,-0.260449 -0.2589,0.564306 h 1.14619 l 0.10025,-0.218591 a 2,2 0 0 1 -1.33894,-1.33997 z"
       inkscape:export-filename="Finished\DC.png"
       inkscape:export-xdpi="96"
       inkscape:export-ydpi="96" />
    <path
       id="path498"
       style="fill:#ffffff;fill-opacity:0;stroke:#ffffff;stroke-width:0.15;stroke-linecap:butt;stroke-linejoin:miter;stroke-dasharray:none;paint-order:markers fill stroke"
       d="m 23.257866,54.332605 a 1,1 0 0 0 0.04289,0.287579 l 0.0021,-7.65e-4 a 1,1 0 0 0 2.61e-4,9.96e-4 l 0.328657,-0.150634 -0.0015,-10e-4 0.0029,-0.0013 -0.291966,-0.133856 0.290937,-0.134869 -0.0015,-0.001 0.0029,-0.0013 -0.332282,-0.153737 a 1,1 0 0 0 -0.04289,0.289127 z m 0.375172,-0.135401 0.0015,10e-4 -0.0029,0.0013 0.179612,0.08316 0.0212,0.0468 0.01495,-0.03228 -0.03512,-0.01631 -0.06279,-0.135907 -0.0011,3.07e-4 -5.23e-4,-10e-4 z m 0.116786,-0.05269 0.212655,-0.0984 -0.114728,0.250634 0.0035,7.07e-4 -8.14e-4,0.002 0.07367,0.03407 -0.07103,0.03277 -0.01682,-0.03619 -0.02661,0.0574 0.04159,-0.01909 0.115501,0.251407 0.0046,0.0018 0.0016,0.003 0.252142,0.115529 0.03331,-0.07177 0.03227,0.07003 0.0052,-0.0019 5.65e-4,0.002 0.252445,-0.116015 0.116008,-0.252437 -0.0035,-0.0021 7.9e-4,-0.002 -0.07051,-0.03233 0.0762,-0.03538 -0.115461,-0.252215 -0.0046,-0.0018 -0.0016,-0.003 -0.250642,-0.116009 0.01909,-0.04187 -0.05738,0.02662 0.03075,0.01449 -0.03076,0.06611 -0.03075,-0.06639 -0.005,0.002 -5.24e-4,-10e-4 -0.250888,0.116015 0.100769,-0.21781 -0.488082,-0.225831 a 1,1 0 0 0 -0.05867,0.05871 z m 0.320913,-0.320913 0.131264,0.06069 0.01888,0.04108 0.03725,-0.01734 -0.0496,-0.02301 -0.08317,-0.179339 -0.0023,0.0047 -0.0031,-0.0074 -0.05296,0.115484 0.005,0.0022 z m 0.04856,-0.119629 0.0023,-0.0047 0.003,0.0073 0.132813,-0.286545 0.131771,0.284733 0.0023,-0.0047 0.003,0.0073 0.152183,-0.332016 a 1,1 0 0 0 -0.288094,-0.0426 1,1 0 0 0 -0.288097,0.0429 l 2.59e-4,5e-4 a 1,1 0 0 0 -0.0033,9.9e-4 z m 0.276471,0.002 -0.0023,0.0047 -0.003,-0.0073 -0.08449,0.182158 0.0098,-0.005 -7.89e-4,0.002 0.130482,-0.0602 0.101006,0.218102 0.219356,0.101552 0.22582,-0.488075 a 1,1 0 0 0 -0.05865,-0.0587 l -0.484206,0.224018 z m 0.369478,0.436937 -0.06434,0.138996 0.0049,-0.0021 -6.07e-4,8.08e-4 0.176989,-0.0819 -0.0015,-10e-4 0.0029,-0.0013 z m 0.11784,0.05448 0.0015,10e-4 -0.0029,0.0013 0.291967,0.135145 -0.290938,0.133581 0.0016,9.68e-4 -0.0029,0.0013 0.333833,0.152968 a 1,1 0 0 0 0.04418,-0.291722 1,1 0 0 0 -0.04264,-0.287054 l -0.0021,7.14e-4 a 1,1 0 0 0 -2.62e-4,-9.97e-4 z m -0.0011,0.27234 -0.0015,-10e-4 0.0029,-0.0013 -0.177537,-0.08137 0.06198,0.134388 0.0017,-0.0011 5.31e-4,10e-4 z m -0.112395,0.0514 -0.221176,0.101279 -0.101286,0.221183 0.487565,0.223503 a 1,1 0 0 0 0.05841,-0.05841 z m -0.322462,0.322462 -0.005,-0.0022 9.65e-4,-0.0019 -0.135125,-0.06201 0.08194,0.176972 0.0023,-0.0047 0.003,0.0073 z m -0.05142,0.112387 -0.0023,0.0047 -0.003,-0.0073 -0.132807,0.286549 -0.131774,-0.28448 -0.0023,0.0047 -0.0035,-0.0078 -0.152967,0.333834 a 1,1 0 0 0 0.291715,0.0442 1,1 0 0 0 0.287065,-0.0427 l -2.59e-4,-4.99e-4 a 1,1 0 0 0 0.0033,-9.9e-4 z m -0.27647,-0.002 0.0023,-0.0047 0.003,0.0073 0.0819,-0.176727 -0.0099,0.0042 7.89e-4,-0.002 -0.130482,0.0599 z m -0.05143,-0.112386 -0.101265,-0.221191 -0.218081,-0.09999 0.06098,-0.1323 -0.0052,0.0033 7.9e-4,-0.002 -0.172337,0.0791 0.0015,10e-4 -0.0029,0.0013 0.112383,0.05171 -0.222469,0.485501 a 1,1 0 0 0 0.05839,0.0584 z m 0.139265,-0.0625 0.04985,-0.02298 -0.03228,-0.01503 z m 0.100791,-0.002 -0.01757,-0.03779 -0.03226,0.01497 z m 0.397627,-0.390698 -0.02659,-0.05742 -0.01728,0.03717 z m -4.95e-4,-0.10543 -0.03776,0.01754 0.01501,0.03226 z" />
  </g>
</svg>
