<?xml version="1.0" encoding="UTF-8" standalone="no"?>
<!-- Created with Inkscape (http://www.inkscape.org/) -->

<svg
   width="4.5653706mm"
   height="4.5653787mm"
   viewBox="0 0 4.5653706 4.5653787"
   version="1.1"
   id="svg1"
   inkscape:version="1.3 (0e150ed6c4, 2023-07-21)"
   sodipodi:docname="gameAssets.svg"
   xmlns:inkscape="http://www.inkscape.org/namespaces/inkscape"
   xmlns:sodipodi="http://sodipodi.sourceforge.net/DTD/sodipodi-0.dtd"
   xmlns="http://www.w3.org/2000/svg"
   xmlns:svg="http://www.w3.org/2000/svg">
  <sodipodi:namedview
     id="namedview1"
     pagecolor="#505050"
     bordercolor="#ffffff"
     borderopacity="1"
     inkscape:showpageshadow="0"
     inkscape:pageopacity="0"
     inkscape:pagecheckerboard="1"
     inkscape:deskcolor="#505050"
     inkscape:document-units="mm"
     showguides="true"
     inkscape:zoom="128"
     inkscape:cx="543.82031"
     inkscape:cy="672.91797"
     inkscape:window-width="2560"
     inkscape:window-height="1521"
     inkscape:window-x="-9"
     inkscape:window-y="-9"
     inkscape:window-maximized="1"
     inkscape:current-layer="g556"
     showgrid="false">
    <sodipodi:guide
       position="152.64153,271.06641"
       orientation="1,0"
       id="guide366"
       inkscape:locked="false" />
  </sodipodi:namedview>
  <defs
     id="defs1">
    <linearGradient
       id="swatch70"
       inkscape:swatch="solid">
      <stop
         style="stop-color:#000000;stop-opacity:1;"
         offset="0"
         id="stop70" />
    </linearGradient>
    <linearGradient
       id="swatch69"
       inkscape:swatch="solid">
      <stop
         style="stop-color:#5f5700;stop-opacity:1;"
         offset="0"
         id="stop69" />
    </linearGradient>
  </defs>
  <g
     inkscape:groupmode="layer"
     id="layer2"
     inkscape:label="Enemy1"
     transform="translate(-21.999999,-45.999999)">
    <path
       id="path521"
       style="fill:#ffffff;fill-opacity:0;stroke:#ffffff;stroke-width:0.15;stroke-linecap:butt;stroke-linejoin:miter;stroke-dasharray:none;paint-order:markers fill stroke"
       d="m 23.550958,47.625316 a 1,1 0 0 0 -0.17302,0.233678 l 0.002,9.19e-4 a 1,1 0 0 0 -5.2e-4,8.89e-4 l 0.33891,0.125881 -3.5e-4,-0.0018 0.003,0.0011 -0.1118,-0.301102 0.30109,0.110357 -3.6e-4,-0.0018 0.003,0.0011 -0.12625,-0.343668 a 1,1 0 0 0 -0.23477,0.174118 z m 0.36103,0.169544 3.5e-4,0.0018 -0.003,-0.0011 0.0682,0.18581 -0.0181,0.04808 0.0334,-0.01225 -0.0133,-0.03637 0.0517,-0.140502 -10e-4,-5.66e-4 3.6e-4,-0.0011 z m 0.11984,0.04532 0.21995,0.08079 -0.25835,0.0961 0.002,0.003 -0.002,8.49e-4 0.028,0.07618 -0.0734,-0.02705 0.0137,-0.03748 -0.0594,0.02177 0.0429,0.01591 -0.0961,0.259443 0.002,0.0045 -10e-4,0.0032 0.0966,0.259983 0.0743,-0.0272 -0.0267,0.07234 0.005,0.0023 -10e-4,0.0018 0.26054,0.09647 0.26053,-0.09647 -10e-4,-0.004 0.002,-8.83e-4 -0.027,-0.07272 0.0789,0.02886 0.0967,-0.259986 -0.002,-0.0045 9.9e-4,-0.0033 -0.0952,-0.259261 0.0431,-0.01611 -0.0594,-0.02175 0.0115,0.03199 -0.0685,0.025 0.0252,-0.06869 -0.005,-0.0021 3.6e-4,-0.0011 -0.25944,-0.09537 0.22527,-0.08276 -0.18544,-0.504813 a 1,1 0 0 0 -0.083,3.5e-5 z m 0.45384,0 0.0499,0.135735 -0.0157,0.0424 0.0386,0.01408 -0.0188,-0.05134 0.068,-0.185623 -0.005,0.0017 0.003,-0.0074 -0.11911,0.04421 0.002,0.0051 z m 0.11893,-0.05025 0.005,-0.0017 -0.003,0.0073 0.29653,-0.108705 -0.10816,0.294513 0.005,-0.0017 -0.003,0.0073 0.34238,-0.127161 a 1,1 0 0 0 -0.17359,-0.233837 1,1 0 0 0 -0.23405,-0.17338 l -1.7e-4,5.36e-4 a 1,1 0 0 0 -0.003,-0.0016 z m 0.19408,0.196908 -0.005,0.0017 0.003,-0.0073 -0.18855,0.06906 0.0105,0.0034 -0.002,8.84e-4 0.13483,0.0497 -0.0828,0.225643 0.0833,0.226916 0.5048,-0.185442 a 1,1 0 0 0 4e-5,-0.08298 l -0.50079,-0.183981 z m -0.0477,0.570222 -0.14378,0.05279 0.005,0.002 -10e-4,1.42e-4 0.18306,0.06724 -3.5e-4,-0.0018 0.003,0.0011 z m 0.0448,0.12185 3.5e-4,0.0018 -0.003,-0.0011 0.11089,0.302014 -0.30018,-0.111269 4.3e-4,0.0018 -0.003,-0.0011 0.12789,0.34422 a 1,1 0 0 0 0.23752,-0.175037 1,1 0 0 0 0.17283,-0.233126 l -0.002,-9.9e-4 a 1,1 0 0 0 5.2e-4,-8.9e-4 z m -0.19335,0.191796 -3.6e-4,-0.0018 0.003,0.0011 -0.068,-0.183075 -0.0512,0.138854 0.002,4.25e-4 -3.5e-4,0.0011 z m -0.11582,-0.04313 -0.22801,-0.08478 -0.22802,0.08478 0.18672,0.502801 a 1,1 0 0 0 0.0826,0 z m -0.45603,-10e-7 -0.002,-0.0051 0.002,-6.36e-4 -0.0517,-0.139395 -0.0672,0.183077 0.005,-0.0017 -0.003,0.0073 z m -0.11583,0.04311 -0.005,0.0017 0.003,-0.0073 -0.29653,0.108712 0.10798,-0.294336 -0.005,0.0017 0.003,-0.008 -0.34422,0.127892 a 1,1 0 0 0 0.17502,0.237528 1,1 0 0 0 0.23318,0.17279 l 1.7e-4,-5.36e-4 a 1,1 0 0 0 0.003,0.0016 z m -0.19408,-0.196908 0.005,-0.0017 -0.003,0.0073 0.18288,-0.06705 -0.01,-0.004 0.002,-8.84e-4 -0.13462,-0.04991 z m 0.0431,-0.115838 0.0848,-0.228011 -0.0835,-0.224912 0.13667,-0.05043 -0.006,-0.0013 0.002,-8.84e-4 -0.17779,-0.06593 3.5e-4,0.0018 -0.003,-0.0011 0.0429,0.116034 -0.50061,0.185992 a 1,1 0 0 0 -10e-6,0.08258 z m 0.14267,0.05428 0.0515,0.019 -0.0122,-0.03345 z m 0.0727,0.06984 0.0143,-0.03915 -0.0334,-0.01223 z m 0.55743,0.0049 0.0218,-0.0594 -0.0385,0.01406 z m 0.0742,-0.0749 -0.0391,-0.0143 -0.0122,0.03343 z"
       inkscape:export-filename="Finished\SquareEnemies_DB.png"
       inkscape:export-xdpi="96"
       inkscape:export-ydpi="96" />
    <path
       id="path495"
       style="fill:#ffffff;fill-opacity:0;stroke:#ffffff;stroke-width:0.3;stroke-linecap:butt;stroke-linejoin:miter;stroke-dasharray:none;paint-order:markers fill stroke"
       d="m 22.45437,46.150001 0.25787,0.562239 0.21497,0.09819 a 2,2 0 0 1 0.77308,-0.44235 l -0.0997,-0.218074 z M 22.71224,46.71224 22.15,46.454375 v 1.146183 l 0.21497,0.0987 a 2,2 0 0 1 0.44546,-0.772046 z m 2.24224,-0.562239 -0.10077,0.218074 a 2,2 0 0 1 1.33635,1.335836 l 0.22531,-0.103353 v -1.146183 l -0.5643,0.258899 0.26045,-0.563273 z m 1.23868,2.701643 a 2,2 0 0 1 -0.44441,0.779798 l 0.10077,0.218074 0.56585,0.262 V 48.95448 Z m -0.34364,0.997872 -0.21808,-0.100769 a 2,2 0 0 1 -0.77825,0.447518 l 0.10129,0.219108 h 1.15704 z M 22.36187,48.856812 22.15,48.954482 v 1.157036 l 0.56327,-0.260449 -0.2589,0.564306 h 1.14619 l 0.10025,-0.218591 a 2,2 0 0 1 -1.33894,-1.33997 z" />
  </g>
</svg>
