<?xml version="1.0" encoding="UTF-8" standalone="no"?>
<!-- Created with Inkscape (http://www.inkscape.org/) -->

<svg
   width="4.2997599mm"
   height="4.299758mm"
   viewBox="0 0 4.2997599 4.299758"
   version="1.1"
   id="svg1"
   inkscape:version="1.3 (0e150ed6c4, 2023-07-21)"
   sodipodi:docname="gameAssets.svg"
   xmlns:inkscape="http://www.inkscape.org/namespaces/inkscape"
   xmlns:sodipodi="http://sodipodi.sourceforge.net/DTD/sodipodi-0.dtd"
   xmlns="http://www.w3.org/2000/svg"
   xmlns:svg="http://www.w3.org/2000/svg">
  <sodipodi:namedview
     id="namedview1"
     pagecolor="#505050"
     bordercolor="#ffffff"
     borderopacity="1"
     inkscape:showpageshadow="0"
     inkscape:pageopacity="0"
     inkscape:pagecheckerboard="1"
     inkscape:deskcolor="#505050"
     inkscape:document-units="mm"
     showguides="true"
     inkscape:zoom="128"
     inkscape:cx="543.82031"
     inkscape:cy="672.91797"
     inkscape:window-width="2560"
     inkscape:window-height="1521"
     inkscape:window-x="-9"
     inkscape:window-y="-9"
     inkscape:window-maximized="1"
     inkscape:current-layer="g556"
     showgrid="false">
    <sodipodi:guide
       position="164.64153,271.06641"
       orientation="1,0"
       id="guide366"
       inkscape:locked="false" />
  </sodipodi:namedview>
  <defs
     id="defs1">
    <linearGradient
       id="swatch70"
       inkscape:swatch="solid">
      <stop
         style="stop-color:#000000;stop-opacity:1;"
         offset="0"
         id="stop70" />
    </linearGradient>
    <linearGradient
       id="swatch69"
       inkscape:swatch="solid">
      <stop
         style="stop-color:#5f5700;stop-opacity:1;"
         offset="0"
         id="stop69" />
    </linearGradient>
  </defs>
  <g
     inkscape:groupmode="layer"
     id="layer2"
     inkscape:label="Enemy1"
     transform="translate(-10,-45.999999)">
    <path
       style="fill:#ffffff;fill-opacity:0;stroke:#ffffff;stroke-width:0.3;stroke-linecap:butt;stroke-linejoin:miter;stroke-dasharray:none;paint-order:markers fill stroke"
       d="m 11.13865,48.418277 0.2326,0.106596 v 0.420683 l 0.44979,10e-7 0.11724,0.255832 0.45773,1e-6 0.11827,-0.255859 0.46196,-2e-6 10e-6,-0.420683 0.21034,-0.0966 v -0.499261 l -0.21037,-0.09737 v -0.443968 h -0.46805 l -0.10846,-0.234181 -0.47731,10e-7 -0.10742,0.234159 -0.4437,1e-6 -10e-6,0.443974 -0.23257,0.107678 z"
       id="path479" />
    <path
       id="path474"
       style="fill:#ffffff;fill-opacity:0;stroke:#ffffff;stroke-width:0.3;stroke-linecap:butt;stroke-linejoin:miter;stroke-dasharray:none;paint-order:markers fill stroke"
       d="m 10.15,46.15 v 0.415479 L 10.39443,46.453858 10.53344,46.15 Z m 1.52963,0 -0.20826,0.454236 h -0.82165 v 0.878499 L 10.15,47.711662 v 0.894002 l 0.49972,0.230994 v 0.90227 h 0.82165 l 0.18862,0.410828 h 0.97513 l 0.19017,-0.410828 h 0.86713 v -0.914156 l 0.45734,-0.211873 V 47.680656 L 13.69242,47.47085 V 46.604236 H 12.82529 L 12.61497,46.15 Z m 2.09238,0 0.12402,0.268201 0.25373,0.116272 V 46.15 Z M 10.15,49.762699 v 0.387057 h 0.36329 l -0.12712,-0.278019 z m 3.99976,0.0072 -0.23151,0.10697 -0.12609,0.272852 h 0.3576 z"
       inkscape:export-filename="Finished\SquareEnemies_BB.png"
       inkscape:export-xdpi="96"
       inkscape:export-ydpi="96" />
  </g>
</svg>
