<?xml version="1.0" encoding="UTF-8" standalone="no"?>
<!-- Created with Inkscape (http://www.inkscape.org/) -->

<svg
   width="4.5653706mm"
   height="4.5653749mm"
   viewBox="0 0 4.5653706 4.5653749"
   version="1.1"
   id="svg1"
   inkscape:version="1.3 (0e150ed6c4, 2023-07-21)"
   sodipodi:docname="gameAssets.svg"
   xmlns:inkscape="http://www.inkscape.org/namespaces/inkscape"
   xmlns:sodipodi="http://sodipodi.sourceforge.net/DTD/sodipodi-0.dtd"
   xmlns="http://www.w3.org/2000/svg"
   xmlns:svg="http://www.w3.org/2000/svg">
  <sodipodi:namedview
     id="namedview1"
     pagecolor="#505050"
     bordercolor="#ffffff"
     borderopacity="1"
     inkscape:showpageshadow="0"
     inkscape:pageopacity="0"
     inkscape:pagecheckerboard="1"
     inkscape:deskcolor="#505050"
     inkscape:document-units="mm"
     showguides="true"
     inkscape:zoom="128"
     inkscape:cx="543.82031"
     inkscape:cy="672.91797"
     inkscape:window-width="2560"
     inkscape:window-height="1521"
     inkscape:window-x="-9"
     inkscape:window-y="-9"
     inkscape:window-maximized="1"
     inkscape:current-layer="g556"
     showgrid="false">
    <sodipodi:guide
       position="152.64153,265.06641"
       orientation="1,0"
       id="guide366"
       inkscape:locked="false" />
  </sodipodi:namedview>
  <defs
     id="defs1">
    <linearGradient
       id="swatch70"
       inkscape:swatch="solid">
      <stop
         style="stop-color:#000000;stop-opacity:1;"
         offset="0"
         id="stop70" />
    </linearGradient>
    <linearGradient
       id="swatch69"
       inkscape:swatch="solid">
      <stop
         style="stop-color:#5f5700;stop-opacity:1;"
         offset="0"
         id="stop69" />
    </linearGradient>
  </defs>
  <g
     inkscape:groupmode="layer"
     id="layer2"
     inkscape:label="Enemy1"
     transform="translate(-21.999999,-40.000003)">
    <path
       id="path520"
       style="fill:#ffffff;fill-opacity:0;stroke:#ffffff;stroke-width:0.3;stroke-linecap:butt;stroke-linejoin:miter;stroke-dasharray:none;paint-order:markers fill stroke"
       d="m 22.45437,40.150001 0.25787,0.562239 0.21497,0.09819 a 2,2 0 0 1 0.77308,-0.44235 l -0.0997,-0.218074 z M 22.71224,40.71224 22.15,40.454375 v 1.146183 l 0.21497,0.0987 a 2,2 0 0 1 0.44546,-0.772046 z m 2.24224,-0.562239 -0.10077,0.218074 a 2,2 0 0 1 1.33635,1.335836 l 0.22531,-0.103353 v -1.146183 l -0.5643,0.258899 0.26045,-0.563273 z m 1.23868,2.701643 a 2,2 0 0 1 -0.44441,0.779798 l 0.10077,0.218074 0.56585,0.262 V 42.95448 Z m -0.34364,0.997872 -0.21808,-0.100769 a 2,2 0 0 1 -0.77825,0.447518 l 0.10129,0.219108 h 1.15704 z M 22.36187,42.856812 22.15,42.954482 v 1.157036 l 0.56327,-0.260449 -0.2589,0.564306 h 1.14619 l 0.10025,-0.218591 a 2,2 0 0 1 -1.33894,-1.33997 z"
       inkscape:export-filename="Finished\SquareEnemies_DA.png"
       inkscape:export-xdpi="96"
       inkscape:export-ydpi="96" />
  </g>
</svg>
