<?xml version="1.0" encoding="UTF-8" standalone="no"?>
<!-- Created with Inkscape (http://www.inkscape.org/) -->

<svg
   width="4.5653887mm"
   height="4.5653911mm"
   viewBox="0 0 4.5653887 4.5653911"
   version="1.1"
   id="svg1"
   inkscape:version="1.3 (0e150ed6c4, 2023-07-21)"
   sodipodi:docname="gameAssets.svg"
   xmlns:inkscape="http://www.inkscape.org/namespaces/inkscape"
   xmlns:sodipodi="http://sodipodi.sourceforge.net/DTD/sodipodi-0.dtd"
   xmlns="http://www.w3.org/2000/svg"
   xmlns:svg="http://www.w3.org/2000/svg">
  <sodipodi:namedview
     id="namedview1"
     pagecolor="#505050"
     bordercolor="#ffffff"
     borderopacity="1"
     inkscape:showpageshadow="0"
     inkscape:pageopacity="0"
     inkscape:pagecheckerboard="1"
     inkscape:deskcolor="#505050"
     inkscape:document-units="mm"
     showguides="true"
     inkscape:zoom="128"
     inkscape:cx="543.82031"
     inkscape:cy="672.91797"
     inkscape:window-width="2560"
     inkscape:window-height="1521"
     inkscape:window-x="-9"
     inkscape:window-y="-9"
     inkscape:window-maximized="1"
     inkscape:current-layer="g556"
     showgrid="false">
    <sodipodi:guide
       position="158.64153,271.06641"
       orientation="1,0"
       id="guide366"
       inkscape:locked="false" />
  </sodipodi:namedview>
  <defs
     id="defs1">
    <linearGradient
       id="swatch70"
       inkscape:swatch="solid">
      <stop
         style="stop-color:#000000;stop-opacity:1;"
         offset="0"
         id="stop70" />
    </linearGradient>
    <linearGradient
       id="swatch69"
       inkscape:swatch="solid">
      <stop
         style="stop-color:#5f5700;stop-opacity:1;"
         offset="0"
         id="stop69" />
    </linearGradient>
  </defs>
  <g
     inkscape:groupmode="layer"
     id="layer2"
     inkscape:label="Enemy1"
     transform="translate(-16,-45.999999)">
    <path
       id="path457"
       style="fill:#ffffff;fill-opacity:0;stroke:#ffffff;stroke-width:0.3;stroke-linecap:butt;stroke-linejoin:miter;stroke-dasharray:none;paint-order:markers fill stroke"
       d="m 16.45439,46.150008 0.25787,0.562239 0.21445,0.09819 a 2,2 0 0 0 -0.11627,0.116272 L 16.71224,46.712252 16.15,46.454387 v 1.146183 l 0.21497,0.0987 a 2,2 0 0 0 -0.0884,0.583427 2,2 0 0 0 0.0853,0.574125 L 16.15,48.954492 v 1.157035 l 0.56327,-0.260449 -0.2589,0.564306 h 1.14619 l 0.10027,-0.218595 a 2,2 0 0 0 0.57619,0.08527 2,2 0 0 0 0.57619,-0.08578 l 0.10129,0.219108 h 1.15703 l -0.262,-0.565857 -0.21807,-0.100769 a 2,2 0 0 0 0.1173,-0.117305 l 0.10077,0.218074 0.56586,0.262 v -1.157035 l -0.22221,-0.102836 a 2,2 0 0 0 0.0832,-0.569475 v -10e-4 a 2,2 0 0 0 -0.0863,-0.577226 l 0.22531,-0.103353 v -1.146183 l -0.56431,0.258899 0.26045,-0.563273 H 18.9545 l -0.10077,0.218074 a 2,2 0 0 0 -0.57826,-0.08578 2,2 0 0 0 -0.57516,0.08578 l -0.0997,-0.218074 z" />
    <path
       id="path468"
       style="fill:#ffffff;fill-opacity:0;stroke:#ffffff;stroke-width:0.1536;stroke-linecap:butt;stroke-linejoin:miter;stroke-dasharray:none;paint-order:markers fill stroke"
       d="m 16.855393,48.171564 0.29691,0.110192 0.11319,-0.04209 a 1.024,1.024 0 0 0 2e-5,0.08417 l -0.1132,-0.04207 -0.29692,0.110198 0.41497,0.414963 0.11356,-0.04209 a 1.024,1.024 0 0 0 0.17919,0.243254 1.024,1.024 0 0 0 0.23876,0.176955 l -0.0413,0.112062 0.41889,0.418892 0.10963,-0.298215 0.11057,0.298035 0.41497,-0.414973 -0.0428,-0.115486 a 1.024,1.024 0 0 0 0.23947,-0.177724 1.024,1.024 0 0 0 0.17756,-0.239667 l 0.11595,0.0427 0.41888,-0.418883 -0.29971,-0.110011 -0.11543,0.04246 a 1.024,1.024 0 0 0 -5e-5,-0.0849 l 0.11544,0.04247 0.29973,-0.110016 -0.4189,-0.418893 -0.11769,0.04322 a 1.024,1.024 0 0 0 -0.17605,-0.236295 l -3.6e-4,-3.63e-4 a 1.024,1.024 0 0 0 -0.24023,-0.177724 l 0.0442,-0.118985 -0.41497,-0.414962 -0.11057,0.298036 -0.10963,-0.298226 -0.41889,0.41889 0.0425,0.115437 a 1.024,1.024 0 0 0 -0.24042,0.178305 1.024,1.024 0 0 0 -0.17716,0.239277 l -0.11502,-0.04289 z"
       inkscape:export-filename="Finished\SquareEnemies_CB.png"
       inkscape:export-xdpi="96"
       inkscape:export-ydpi="96" />
  </g>
</svg>
