<?xml version="1.0" encoding="UTF-8" standalone="no"?>
<!-- Created with Inkscape (http://www.inkscape.org/) -->

<svg
   width="4.5653906mm"
   height="4.5653706mm"
   viewBox="0 0 4.5653906 4.5653706"
   version="1.1"
   id="svg1"
   inkscape:version="1.3 (0e150ed6c4, 2023-07-21)"
   sodipodi:docname="gameAssets.svg"
   xmlns:inkscape="http://www.inkscape.org/namespaces/inkscape"
   xmlns:sodipodi="http://sodipodi.sourceforge.net/DTD/sodipodi-0.dtd"
   xmlns="http://www.w3.org/2000/svg"
   xmlns:svg="http://www.w3.org/2000/svg">
  <sodipodi:namedview
     id="namedview1"
     pagecolor="#505050"
     bordercolor="#ffffff"
     borderopacity="1"
     inkscape:showpageshadow="0"
     inkscape:pageopacity="0"
     inkscape:pagecheckerboard="1"
     inkscape:deskcolor="#505050"
     inkscape:document-units="mm"
     showguides="true"
     inkscape:zoom="128"
     inkscape:cx="543.82031"
     inkscape:cy="672.91797"
     inkscape:window-width="2560"
     inkscape:window-height="1521"
     inkscape:window-x="-9"
     inkscape:window-y="-9"
     inkscape:window-maximized="1"
     inkscape:current-layer="g556"
     showgrid="false">
    <sodipodi:guide
       position="146.64153,265.06641"
       orientation="1,0"
       id="guide366"
       inkscape:locked="false" />
  </sodipodi:namedview>
  <defs
     id="defs1">
    <linearGradient
       id="swatch70"
       inkscape:swatch="solid">
      <stop
         style="stop-color:#000000;stop-opacity:1;"
         offset="0"
         id="stop70" />
    </linearGradient>
    <linearGradient
       id="swatch69"
       inkscape:swatch="solid">
      <stop
         style="stop-color:#5f5700;stop-opacity:1;"
         offset="0"
         id="stop69" />
    </linearGradient>
  </defs>
  <g
     inkscape:groupmode="layer"
     id="layer2"
     inkscape:label="Enemy1"
     transform="translate(-28.000001,-40.000003)">
    <path
       id="path492"
       style="fill:#ffffff;fill-opacity:0;stroke:#ffffff;stroke-width:0.3;stroke-linecap:butt;stroke-linejoin:miter;stroke-dasharray:none;paint-order:markers fill stroke"
       d="m 32.41538,42.315496 -1.54099,0.57258 -0.16227,0.44235 1.70325,0.780829 z m 0,0 1e-5,-1.861383 -2.12288,0.982371 -0.43925,-0.201538 -0.16227,0.44235 1.88516,-0.699698 -0.70176,1.910478 z m -1.54099,0.57258 -1.88465,0.699712 0.70125,-1.910492 -1.54099,0.572567 v 1.861396 l 2.12287,-0.982372 0.43925,0.201539 z m 0,0 0.70176,-1.910478 -1.88516,0.699698 -0.70125,1.910492 z m -1.18337,-1.210808 0.16228,-0.442342 -1.70326,-0.78084 -10e-6,1.795749 z M 30.3155,40.15 30.88808,41.690991 31.33043,41.853255 32.11126,40.15 Z m 0,0 h -1.86138 l 0.98237,2.122868 -0.20154,0.43925 0.44235,0.162264 -0.6997,-1.885157 1.91048,0.701766 z m 0.57258,1.540991 0.6997,1.88464 -1.91048,-0.701249 0.57257,1.540991 h 1.86139 l -0.98237,-2.122868 0.20154,-0.43925 z m 0,0 -1.91048,-0.701766 0.6997,1.885157 1.91048,0.701249 z m -1.21078,1.183391 -0.44235,-0.162264 -0.78083,1.703255 h 1.79575 z"
       inkscape:export-filename="Finished\SquareEnemies_EC.png"
       inkscape:export-xdpi="96"
       inkscape:export-ydpi="96" />
  </g>
</svg>
