<?xml version="1.0" encoding="UTF-8" standalone="no"?>
<!-- Created with Inkscape (http://www.inkscape.org/) -->

<svg
   width="0.83549488mm"
   height="2.7761226mm"
   viewBox="0 0 0.83549488 2.7761226"
   version="1.1"
   id="svg1"
   inkscape:version="1.3 (0e150ed6c4, 2023-07-21)"
   sodipodi:docname="gameAssets.svg"
   xmlns:inkscape="http://www.inkscape.org/namespaces/inkscape"
   xmlns:sodipodi="http://sodipodi.sourceforge.net/DTD/sodipodi-0.dtd"
   xmlns="http://www.w3.org/2000/svg"
   xmlns:svg="http://www.w3.org/2000/svg">
  <sodipodi:namedview
     id="namedview1"
     pagecolor="#505050"
     bordercolor="#ffffff"
     borderopacity="1"
     inkscape:showpageshadow="0"
     inkscape:pageopacity="0"
     inkscape:pagecheckerboard="1"
     inkscape:deskcolor="#505050"
     inkscape:document-units="mm"
     showguides="true"
     inkscape:zoom="16"
     inkscape:cx="689.875"
     inkscape:cy="574.09375"
     inkscape:window-width="2560"
     inkscape:window-height="1521"
     inkscape:window-x="-9"
     inkscape:window-y="-9"
     inkscape:window-maximized="1"
     inkscape:current-layer="layer13"
     showgrid="false">
    <sodipodi:guide
       position="-12.011688,378.29219"
       orientation="1,0"
       id="guide366"
       inkscape:locked="false" />
  </sodipodi:namedview>
  <defs
     id="defs1">
    <inkscape:path-effect
       effect="bspline"
       id="path-effect435"
       is_visible="true"
       lpeversion="1.3"
       weight="33.333333"
       steps="2"
       helper_size="0"
       apply_no_weight="true"
       apply_with_weight="true"
       only_selected="false"
       uniform="false" />
    <inkscape:path-effect
       effect="bspline"
       id="path-effect431"
       is_visible="true"
       lpeversion="1.3"
       weight="33.333333"
       steps="2"
       helper_size="0"
       apply_no_weight="true"
       apply_with_weight="true"
       only_selected="false"
       uniform="false" />
    <inkscape:path-effect
       effect="bspline"
       id="path-effect427"
       is_visible="true"
       lpeversion="1.3"
       weight="33.333333"
       steps="2"
       helper_size="0"
       apply_no_weight="true"
       apply_with_weight="true"
       only_selected="false"
       uniform="false" />
    <inkscape:path-effect
       effect="bspline"
       id="path-effect418"
       is_visible="true"
       lpeversion="1.3"
       weight="33.333333"
       steps="2"
       helper_size="0"
       apply_no_weight="true"
       apply_with_weight="true"
       only_selected="false"
       uniform="false" />
    <inkscape:path-effect
       effect="bspline"
       id="path-effect408"
       is_visible="true"
       lpeversion="1.3"
       weight="33.333333"
       steps="2"
       helper_size="0"
       apply_no_weight="true"
       apply_with_weight="true"
       only_selected="false"
       uniform="false" />
    <inkscape:path-effect
       effect="bspline"
       id="path-effect398"
       is_visible="true"
       lpeversion="1.3"
       weight="33.333333"
       steps="2"
       helper_size="0"
       apply_no_weight="true"
       apply_with_weight="true"
       only_selected="false"
       uniform="false" />
    <inkscape:path-effect
       effect="bspline"
       id="path-effect394"
       is_visible="true"
       lpeversion="1.3"
       weight="33.333333"
       steps="2"
       helper_size="0"
       apply_no_weight="true"
       apply_with_weight="true"
       only_selected="false"
       uniform="false" />
    <inkscape:path-effect
       effect="bspline"
       id="path-effect390"
       is_visible="true"
       lpeversion="1.3"
       weight="33.333333"
       steps="2"
       helper_size="0"
       apply_no_weight="true"
       apply_with_weight="true"
       only_selected="false"
       uniform="false" />
    <inkscape:path-effect
       effect="bspline"
       id="path-effect386"
       is_visible="true"
       lpeversion="1.3"
       weight="33.333333"
       steps="2"
       helper_size="0"
       apply_no_weight="true"
       apply_with_weight="true"
       only_selected="false"
       uniform="false" />
    <inkscape:path-effect
       effect="bspline"
       id="path-effect382"
       is_visible="true"
       lpeversion="1.3"
       weight="33.333333"
       steps="2"
       helper_size="0"
       apply_no_weight="true"
       apply_with_weight="true"
       only_selected="false"
       uniform="false" />
    <inkscape:path-effect
       effect="bspline"
       id="path-effect370"
       is_visible="true"
       lpeversion="1.3"
       weight="33.333333"
       steps="2"
       helper_size="0"
       apply_no_weight="true"
       apply_with_weight="true"
       only_selected="false"
       uniform="false" />
    <inkscape:path-effect
       effect="bspline"
       id="path-effect364"
       is_visible="true"
       lpeversion="1.3"
       weight="33.333333"
       steps="2"
       helper_size="0"
       apply_no_weight="true"
       apply_with_weight="true"
       only_selected="false"
       uniform="false" />
    <inkscape:path-effect
       effect="bspline"
       id="path-effect353"
       is_visible="true"
       lpeversion="1.3"
       weight="33.333333"
       steps="2"
       helper_size="0"
       apply_no_weight="true"
       apply_with_weight="true"
       only_selected="false"
       uniform="false" />
    <linearGradient
       id="swatch70"
       inkscape:swatch="solid">
      <stop
         style="stop-color:#000000;stop-opacity:1;"
         offset="0"
         id="stop70" />
    </linearGradient>
    <linearGradient
       id="swatch69"
       inkscape:swatch="solid">
      <stop
         style="stop-color:#5f5700;stop-opacity:1;"
         offset="0"
         id="stop69" />
    </linearGradient>
  </defs>
  <g
     inkscape:groupmode="layer"
     id="layer13"
     inkscape:label="TopDown"
     transform="translate(-186.65322,-153.22578)">
    <g
       id="g435"
       inkscape:label="Flamethrower_TD">
      <rect
         style="fill:#000000;fill-opacity:0;stroke:#ffffff;stroke-width:0.07;stroke-linecap:square;stroke-miterlimit:3;stroke-dasharray:none;stroke-opacity:1;paint-order:markers stroke fill"
         id="rect425"
         width="0.23500745"
         height="1.4442686"
         x="186.87988"
         y="153.54028" />
      <path
         style="fill:#ffffff;fill-opacity:0;stroke:#ffffff;stroke-width:0.07;stroke-linecap:square;stroke-miterlimit:40.2;stroke-opacity:1;paint-order:markers stroke fill"
         d="m 187.12057,153.54176 c 0.0412,3.1e-4 0.0823,6.2e-4 0.12346,9.3e-4 0,0 -0.12093,-0.28184 -0.12093,-0.28184 0,0 -0.27584,0.001 -0.27584,0.001 0,0 -0.11815,0.28047 -0.11815,0.28047 0.0512,-3e-5 0.10231,-7e-5 0.15347,-1e-4"
         id="path351"
         inkscape:path-effect="#path-effect353"
         inkscape:original-d="m 187.12057,153.54176 c 0.0412,3.1e-4 0.12346,9.3e-4 0.12346,9.3e-4 l -0.12093,-0.28184 -0.27584,0.001 -0.11815,0.28047 c 0,0 0.10231,-7e-5 0.15347,-1e-4"
         sodipodi:nodetypes="cccccc" />
      <path
         style="fill:#ffffff;fill-opacity:0;stroke:#ffffff;stroke-width:0.07;stroke-linecap:square;stroke-miterlimit:40.2;stroke-dasharray:none;stroke-opacity:1;paint-order:markers stroke fill"
         d="m 186.75354,154.98427 c 0,0 0.53028,7.6e-4 0.53028,7.6e-4 0,0 -0.075,0.50264 -0.075,0.50264 0,0 -0.13336,-0.001 -0.13336,-0.001 0,0 -0.009,0.42561 -0.009,0.42561 -0.0197,0.003 -0.0396,0.006 -0.0596,0.006 -0.02,-3.9e-4 -0.041,-0.004 -0.0617,-0.008 0,0 -10e-6,-0.42405 -10e-6,-0.42405 0,0 -0.14271,-0.001 -0.14271,-0.001 z"
         id="path353"
         inkscape:path-effect="#path-effect364"
         inkscape:original-d="m 186.75354,154.98427 0.53028,7.6e-4 -0.075,0.50264 -0.13336,-0.001 -0.009,0.42561 c 0,0 -0.0396,0.006 -0.059,0.009 -0.0205,-0.004 -0.0623,-0.0113 -0.0623,-0.0113 l -10e-6,-0.42405 -0.14271,-0.001 z"
         sodipodi:nodetypes="cccccacccc" />
      <path
         style="fill:#ffffff;fill-opacity:0;stroke:#ffffff;stroke-width:0.07;stroke-linecap:square;stroke-miterlimit:40.2;stroke-dasharray:none;stroke-opacity:1;paint-order:markers stroke fill"
         d="m 187.13173,153.85107 c 0.0551,0 0.11024,0 0.16536,0 0,0 -0.001,0.94672 -0.001,0.94672 -0.0585,3.3e-4 -0.11711,6.7e-4 -0.17566,0.001"
         id="path364"
         inkscape:path-effect="#path-effect370"
         inkscape:original-d="m 187.13173,153.85107 c 0.0551,0 0.16536,0 0.16536,0 l -0.001,0.94672 c 0,0 -0.11711,6.8e-4 -0.17566,0.001"
         sodipodi:nodetypes="cccc" />
      <path
         style="fill:#ffffff;fill-opacity:0;stroke:#ffffff;stroke-width:0.07;stroke-linecap:square;stroke-miterlimit:40.2;stroke-dasharray:none;stroke-opacity:1;paint-order:markers stroke fill"
         d="m 187.13173,153.85107 c 0.0551,0 0.11024,0 0.16536,0 0,0 -0.001,0.94672 -0.001,0.94672 -0.0585,3.3e-4 -0.11711,6.7e-4 -0.17566,0.001"
         id="path370"
         inkscape:path-effect="#path-effect382"
         inkscape:original-d="m 187.13173,153.85107 c 0.0551,0 0.16536,0 0.16536,0 l -0.001,0.94672 c 0,0 -0.11711,6.8e-4 -0.17566,0.001"
         sodipodi:nodetypes="cccc"
         transform="matrix(-1,0,0,1,373.98535,-0.00206706)" />
      <path
         style="fill:#ffffff;fill-opacity:0;stroke:#ffffff;stroke-width:0.02;stroke-linecap:square;stroke-miterlimit:40.2;stroke-dasharray:none;stroke-opacity:1;paint-order:markers stroke fill"
         d="m 187.01851,155.91794 c 0,0.0146 0,0.0292 0.002,0.0376 0.001,0.008 0.004,0.0103 0.01,0.0148 0.005,0.005 0.0131,0.0112 0.0312,0.0156 0.018,0.004 0.0462,0.006 0.0639,0.006 0.0176,-5.3e-4 0.0243,-0.003 0.0307,-0.005 0.006,-0.002 0.0121,-0.003 0.0195,-0.007 0.007,-0.004 0.0159,-0.0106 0.0223,-0.015 0.006,-0.004 0.0104,-0.006 0.0132,-0.01 0.003,-0.003 0.005,-0.008 0.009,-0.0147 0.004,-0.006 0.01,-0.0139 0.0198,-0.0251 0.0102,-0.0112 0.0248,-0.0258 0.0351,-0.0366 0.0103,-0.0108 0.016,-0.0175 0.0262,-0.0282 0.0102,-0.0107 0.0248,-0.0253 0.0409,-0.0409 0.0161,-0.0156 0.0336,-0.0322 0.0439,-0.0449 0.0103,-0.0128 0.0132,-0.0213 0.0157,-0.0267 0.003,-0.005 0.005,-0.007 0.006,-0.0104 0.001,-0.003 0.001,-0.007 0.001,-0.0134 0,-0.006 0,-0.0148 -0.003,-0.0242 -0.003,-0.009 -0.009,-0.0189 -0.0131,-0.0248 -0.004,-0.006 -0.007,-0.008 -0.009,-0.0103 -0.002,-0.003 -0.003,-0.006 -0.005,-0.008 -0.002,-0.002 -0.005,-0.005 -0.0202,-0.009 -0.0152,-0.004 -0.0424,-0.0113 -0.0601,-0.0147 -0.0176,-0.003 -0.0252,-0.003 -0.0326,-9.2e-4 -0.007,0.002 -0.0142,0.007 -0.0181,0.0165 -0.004,0.009 -0.005,0.0229 -0.005,0.0355 -5e-4,0.0127 -5e-4,0.0243 0.004,0.0332 0.005,0.009 0.013,0.0145 0.0189,0.0184 0.006,0.004 0.009,0.006 0.0211,0.006 0.0122,5e-4 0.0337,-5e-4 0.0449,-0.001 0.0112,-0.001 0.0122,-0.002 0.0152,-0.003 0.003,-0.001 0.008,-0.002 0.0123,-0.005 0.004,-0.003 0.008,-0.008 0.0137,-0.0133 0.005,-0.005 0.012,-0.011 0.0159,-0.0159 0.004,-0.005 0.005,-0.009 0.007,-0.0118 0.002,-0.003 0.005,-0.005 0.007,-0.008 0.002,-0.003 0.003,-0.007 0.005,-0.0133 0.002,-0.006 0.005,-0.0149 0.009,-0.0247 0.004,-0.01 0.009,-0.0205 0.0156,-0.0366 0.007,-0.0161 0.0156,-0.0375 0.0215,-0.0512 0.006,-0.0137 0.009,-0.0194 0.0119,-0.0296 0.003,-0.0102 0.006,-0.0248 0.007,-0.0361 0.001,-0.0113 0.001,-0.0189 0.003,-0.0258 0.001,-0.007 0.003,-0.0126 0.004,-0.0228 9.9e-4,-0.0102 9.9e-4,-0.0248 9.9e-4,-0.0404 0,-0.0156 0,-0.0321 -0.002,-0.0516 -0.002,-0.0195 -0.007,-0.0419 -0.0102,-0.0585 -0.003,-0.0165 -0.004,-0.0272 -0.005,-0.0346 -0.002,-0.007 -0.004,-0.0114 -0.005,-0.0162 -0.001,-0.005 -0.002,-0.0106 -0.005,-0.0165 -0.002,-0.006 -0.006,-0.0117 -0.009,-0.016 -0.002,-0.004 -0.003,-0.007 -0.005,-0.01 -0.002,-0.002 -0.005,-0.005 -0.0104,-0.0109 -0.005,-0.006 -0.0131,-0.017 -0.0186,-0.0254 -0.005,-0.008 -0.008,-0.0141 -0.0109,-0.0175 -0.002,-0.003 -0.004,-0.004 -0.005,-0.006 -0.001,-0.001 -0.001,-0.004 -0.001,-0.005 -5e-4,-0.002 -0.001,-0.002 -0.002,-0.005 -5e-4,-0.002 -5e-4,-0.005 -0.001,-0.007 -5e-4,-0.002 -0.001,-0.003 -0.002,-0.005 -5e-4,-0.001 -5e-4,-0.004 -0.001,-0.006 -5e-4,-0.002 -0.001,-0.005 -0.002,-0.0134 -5e-4,-0.008 -5e-4,-0.0204 -0.001,-0.0268 -0.001,-0.006 -0.003,-0.006 -0.004,-0.007 -0.001,-5e-4 -0.001,-0.001 -0.002,-0.002 -5e-4,-0.001 -0.001,-0.002 -0.003,-0.002 -0.002,-5e-4 -0.005,-5e-4 -0.008,-0.002 -0.003,-0.002 -0.006,-0.006 -0.009,-0.008 -0.003,-0.002 -0.006,-0.003 -0.0128,-0.007 -0.007,-0.004 -0.0175,-0.0107 -0.0259,-0.0152 -0.008,-0.004 -0.0141,-0.006 -0.0195,-0.0104 -0.005,-0.004 -0.0103,-0.01 -0.0141,-0.0127 -0.004,-0.003 -0.007,-0.003 -0.009,-0.004 -0.002,-10e-4 -0.005,-0.003 -0.01,-0.006 -0.005,-0.003 -0.0127,-0.007 -0.021,-0.0133 -0.008,-0.006 -0.0169,-0.0149 -0.0258,-0.0243 -0.009,-0.009 -0.0174,-0.0189 -0.0223,-0.0252 -0.005,-0.006 -0.006,-0.009 -0.008,-0.0128 -0.002,-0.003 -0.005,-0.007 -0.007,-0.0103 -0.001,-0.003 -0.001,-0.005 -0.002,-0.006 -5e-4,-0.001 -0.001,-0.001 -0.002,-0.003 -5e-4,-0.002 -5e-4,-0.006 -5e-4,-0.0152 0,-0.009 0,-0.0237 -5.1e-4,-0.0335 -5.2e-4,-0.01 -0.002,-0.0148 -0.002,-0.0194"
         id="path386"
         inkscape:path-effect="#path-effect386"
         inkscape:original-d="m 187.01851,155.91794 c 0,0.0146 0,0.0292 0,0.0439 0.003,0.002 0.006,0.004 0.009,0.006 0.008,0.007 0.0156,0.0137 0.0234,0.0205 0.0283,0.002 0.0565,0.004 0.0848,0.006 0.007,-0.003 0.0136,-0.006 0.0204,-0.009 0.006,-0.001 0.0117,-0.002 0.0175,-0.003 0.009,-0.007 0.0175,-0.0136 0.0263,-0.0204 0.004,-0.002 0.008,-0.004 0.0117,-0.006 0.002,-0.005 0.004,-0.01 0.006,-0.0146 0.006,-0.008 0.0117,-0.0156 0.0175,-0.0234 0.0146,-0.0146 0.0292,-0.0292 0.0438,-0.0438 0.006,-0.007 0.0117,-0.0137 0.0175,-0.0205 0.0146,-0.0146 0.0292,-0.0292 0.0438,-0.0438 0.0175,-0.0166 0.0351,-0.0331 0.0526,-0.0497 0.003,-0.009 0.006,-0.0175 0.009,-0.0263 0.002,-0.002 0.004,-0.004 0.006,-0.006 0,-0.004 0,-0.008 0,-0.0117 0,-0.009 0,-0.0175 0,-0.0263 -0.006,-0.01 -0.0117,-0.0195 -0.0175,-0.0292 -0.003,-0.002 -0.006,-0.004 -0.009,-0.006 -0.001,-0.003 -0.002,-0.006 -0.003,-0.009 -0.003,-0.002 -0.006,-0.004 -0.009,-0.006 -0.0273,-0.007 -0.0546,-0.0137 -0.0819,-0.0205 -0.008,0 -0.0156,0 -0.0234,0 -0.007,0.005 -0.0137,0.01 -0.0205,0.0146 -10e-4,0.0136 -0.002,0.0273 -0.003,0.0409 0,0.0117 0,0.0234 0,0.0351 0.009,0.006 0.0175,0.0117 0.0263,0.0175 0.003,0.002 0.006,0.004 0.009,0.006 0.0214,-0.001 0.0429,-0.002 0.0643,-0.003 10e-4,-0.001 0.002,-0.002 0.003,-0.003 0.005,-0.001 0.01,-0.002 0.0146,-0.003 0.004,-0.005 0.008,-0.01 0.0117,-0.0146 0.007,-0.006 0.0136,-0.0117 0.0204,-0.0175 10e-4,-0.004 0.002,-0.008 0.003,-0.0117 0.003,-0.002 0.006,-0.004 0.009,-0.006 10e-4,-0.004 0.002,-0.008 0.003,-0.0117 0.003,-0.009 0.006,-0.0175 0.009,-0.0263 0.005,-0.0107 0.01,-0.0214 0.0146,-0.0322 0.009,-0.0214 0.0175,-0.0429 0.0263,-0.0643 0.003,-0.006 0.006,-0.0117 0.009,-0.0175 0.003,-0.0146 0.006,-0.0292 0.009,-0.0438 0,-0.008 0,-0.0156 0,-0.0234 0.002,-0.006 0.004,-0.0117 0.006,-0.0175 0,-0.0146 0,-0.0292 0,-0.0438 0,-0.0166 0,-0.0331 0,-0.0497 -0.005,-0.0224 -0.01,-0.0448 -0.0146,-0.0672 -0.001,-0.0107 -0.002,-0.0214 -0.003,-0.0322 -0.002,-0.004 -0.004,-0.008 -0.006,-0.0117 -0.001,-0.006 -0.002,-0.0117 -0.003,-0.0175 -0.004,-0.006 -0.008,-0.0117 -0.0117,-0.0175 -0.001,-0.003 -0.002,-0.006 -0.003,-0.009 -0.003,-0.002 -0.006,-0.004 -0.009,-0.006 -0.008,-0.0107 -0.0156,-0.0214 -0.0234,-0.0322 -0.003,-0.006 -0.006,-0.0117 -0.009,-0.0175 -0.002,-0.001 -0.004,-0.002 -0.006,-0.003 0,-0.002 0,-0.004 0,-0.006 -10e-4,-0.001 -0.002,-0.002 -0.003,-0.003 0,-0.003 0,-0.006 0,-0.009 -0.001,-0.001 -0.002,-0.002 -0.003,-0.003 0,-0.002 0,-0.004 0,-0.006 -10e-4,-0.003 -0.002,-0.006 -0.003,-0.009 0,-0.0127 0,-0.0253 0,-0.038 -0.002,0 -0.004,0 -0.006,0 0,-0.001 0,-0.002 0,-0.003 -0.001,-0.001 -0.002,-0.002 -0.003,-0.003 -0.003,0 -0.006,0 -0.009,0 -0.003,-0.004 -0.006,-0.008 -0.009,-0.0117 -0.003,-10e-4 -0.006,-0.002 -0.009,-0.003 -0.0107,-0.007 -0.0214,-0.0137 -0.0322,-0.0205 -0.006,-0.002 -0.0117,-0.004 -0.0175,-0.006 -0.005,-0.006 -0.01,-0.0117 -0.0146,-0.0175 -0.003,0 -0.006,0 -0.009,0 -0.002,-0.002 -0.004,-0.004 -0.006,-0.006 -0.008,-0.004 -0.0156,-0.008 -0.0234,-0.0117 -0.009,-0.009 -0.0175,-0.0175 -0.0263,-0.0263 -0.009,-0.01 -0.0175,-0.0195 -0.0263,-0.0292 -0.001,-0.003 -0.002,-0.006 -0.003,-0.009 -0.003,-0.004 -0.006,-0.008 -0.009,-0.0117 0,-0.002 0,-0.004 0,-0.006 -10e-4,0 -0.002,0 -0.003,0 0,-0.004 0,-0.008 0,-0.0117 0,-0.0146 0,-0.0292 0,-0.0438 -0.001,-0.005 -0.002,-0.01 -0.003,-0.0146" />
      <path
         style="fill:#ffffff;fill-opacity:0;stroke:#ffffff;stroke-width:0.02;stroke-linecap:square;stroke-miterlimit:40.2;stroke-dasharray:none;stroke-opacity:1;paint-order:markers stroke fill"
         d="m 187.22168,154.79102 c 0,0 -0.003,-0.92959 -0.003,-0.92959"
         id="path390"
         inkscape:path-effect="#path-effect390"
         inkscape:original-d="m 187.22168,154.79102 -0.003,-0.92959" />
      <path
         style="fill:#ffffff;fill-opacity:0;stroke:#ffffff;stroke-width:0.02;stroke-linecap:square;stroke-miterlimit:40.2;stroke-dasharray:none;stroke-opacity:1;paint-order:markers stroke fill"
         d="m 186.76482,153.85727 c 0,0 -0.002,0.94672 -0.002,0.94672"
         id="path391"
         inkscape:path-effect="#path-effect394"
         inkscape:original-d="m 186.76482,153.85727 -0.002,0.94672" />
      <path
         style="fill:#ffffff;fill-opacity:0;stroke:#ffffff;stroke-width:0.02;stroke-linecap:square;stroke-miterlimit:40.2;stroke-dasharray:none;stroke-opacity:1;paint-order:markers stroke fill"
         d="m 186.84957,154.76988 c 0,0 -0.0858,-0.17673 -0.0858,-0.17673 0,0 0.10131,-0.1602 0.10131,-0.1602"
         id="path394"
         inkscape:path-effect="#path-effect398"
         inkscape:original-d="m 186.84957,154.76988 -0.0858,-0.17673 0.10131,-0.1602"
         transform="translate(0.00930176,-0.00103353)" />
      <path
         style="fill:#ffffff;fill-opacity:0;stroke:#ffffff;stroke-width:0.02;stroke-linecap:square;stroke-miterlimit:40.2;stroke-dasharray:none;stroke-opacity:1;paint-order:markers stroke fill"
         d="m 186.84957,154.76988 c 0,0 -0.0858,-0.17673 -0.0858,-0.17673 0,0 0.10131,-0.1602 0.10131,-0.1602"
         id="path398"
         inkscape:path-effect="#path-effect408"
         inkscape:original-d="m 186.84957,154.76988 -0.0858,-0.17673 0.10131,-0.1602"
         transform="translate(0.01343587,-0.30489095)" />
      <path
         style="fill:#ffffff;fill-opacity:0;stroke:#ffffff;stroke-width:0.02;stroke-linecap:square;stroke-miterlimit:40.2;stroke-dasharray:none;stroke-opacity:1;paint-order:markers stroke fill"
         d="m 186.84957,154.76988 c 0,0 -0.0858,-0.17673 -0.0858,-0.17673 0,0 0.10131,-0.1602 0.10131,-0.1602"
         id="path408"
         inkscape:path-effect="#path-effect418"
         inkscape:original-d="m 186.84957,154.76988 -0.0858,-0.17673 0.10131,-0.1602"
         transform="translate(0.01136881,-0.57877604)" />
      <path
         style="fill:#ffffff;fill-opacity:0;stroke:#ffffff;stroke-width:0.02;stroke-linecap:square;stroke-miterlimit:40.2;stroke-dasharray:none;stroke-opacity:1;paint-order:markers stroke fill"
         d="m 186.84957,154.76988 c 0,0 -0.0858,-0.17673 -0.0858,-0.17673 0,0 0.10131,-0.1602 0.10131,-0.1602"
         id="path418"
         inkscape:path-effect="#path-effect427"
         inkscape:original-d="m 186.84957,154.76988 -0.0858,-0.17673 0.10131,-0.1602"
         transform="matrix(-1,0,0,1,373.98366,0.00206706)" />
      <path
         style="fill:#ffffff;fill-opacity:0;stroke:#ffffff;stroke-width:0.02;stroke-linecap:square;stroke-miterlimit:40.2;stroke-dasharray:none;stroke-opacity:1;paint-order:markers stroke fill"
         d="m 186.84957,154.76988 c 0,0 -0.0858,-0.17673 -0.0858,-0.17673 0,0 0.10131,-0.1602 0.10131,-0.1602"
         id="path419"
         inkscape:path-effect="#path-effect431"
         inkscape:original-d="m 186.84957,154.76988 -0.0858,-0.17673 0.10131,-0.1602"
         transform="matrix(-1,0,0,1,373.97952,-0.30179036)" />
      <path
         style="fill:#ffffff;fill-opacity:0;stroke:#ffffff;stroke-width:0.02;stroke-linecap:square;stroke-miterlimit:40.2;stroke-dasharray:none;stroke-opacity:1;paint-order:markers stroke fill"
         d="m 186.84957,154.76988 c 0,0 -0.0858,-0.17673 -0.0858,-0.17673 0,0 0.10131,-0.1602 0.10131,-0.1602"
         id="path420"
         inkscape:path-effect="#path-effect435"
         inkscape:original-d="m 186.84957,154.76988 -0.0858,-0.17673 0.10131,-0.1602"
         transform="matrix(-1,0,0,1,373.98159,-0.57567545)" />
    </g>
  </g>
</svg>
