<?xml version="1.0" encoding="UTF-8" standalone="no"?>
<!-- Created with Inkscape (http://www.inkscape.org/) -->

<svg
   width="0.64046478mm"
   height="2.1947062mm"
   viewBox="0 0 0.64046478 2.1947062"
   version="1.1"
   id="svg1"
   inkscape:version="1.3 (0e150ed6c4, 2023-07-21)"
   sodipodi:docname="gameAssets.svg"
   xmlns:inkscape="http://www.inkscape.org/namespaces/inkscape"
   xmlns:sodipodi="http://sodipodi.sourceforge.net/DTD/sodipodi-0.dtd"
   xmlns="http://www.w3.org/2000/svg"
   xmlns:svg="http://www.w3.org/2000/svg">
  <sodipodi:namedview
     id="namedview1"
     pagecolor="#505050"
     bordercolor="#ffffff"
     borderopacity="1"
     inkscape:showpageshadow="0"
     inkscape:pageopacity="0"
     inkscape:pagecheckerboard="1"
     inkscape:deskcolor="#505050"
     inkscape:document-units="mm"
     showguides="true"
     inkscape:zoom="16"
     inkscape:cx="689.875"
     inkscape:cy="574.09375"
     inkscape:window-width="2560"
     inkscape:window-height="1521"
     inkscape:window-x="-9"
     inkscape:window-y="-9"
     inkscape:window-maximized="1"
     inkscape:current-layer="layer13"
     showgrid="false">
    <sodipodi:guide
       position="-10.38324,354.85675"
       orientation="1,0"
       id="guide366"
       inkscape:locked="false" />
  </sodipodi:namedview>
  <defs
     id="defs1">
    <inkscape:path-effect
       effect="bspline"
       id="path-effect619"
       is_visible="true"
       lpeversion="1.3"
       weight="33.333333"
       steps="2"
       helper_size="0"
       apply_no_weight="true"
       apply_with_weight="true"
       only_selected="false"
       uniform="false" />
    <linearGradient
       id="swatch70"
       inkscape:swatch="solid">
      <stop
         style="stop-color:#000000;stop-opacity:1;"
         offset="0"
         id="stop70" />
    </linearGradient>
    <linearGradient
       id="swatch69"
       inkscape:swatch="solid">
      <stop
         style="stop-color:#5f5700;stop-opacity:1;"
         offset="0"
         id="stop69" />
    </linearGradient>
  </defs>
  <g
     inkscape:groupmode="layer"
     id="layer6"
     inkscape:label="ZipBomb"
     transform="translate(-185.02477,-129.79034)">
    <path
       id="path616"
       style="fill:#ffffff;fill-opacity:0;stroke:#ffffff;stroke-width:0.0799999;stroke-linecap:square;stroke-miterlimit:40.2;stroke-dasharray:none;stroke-opacity:1;paint-order:markers stroke fill"
       d="m 185.47498,130.49642 7e-5,-0.24701 0.14883,-0.12919 -5.1e-4,-0.19947 c -0.0146,-0.0514 -0.13335,-0.0905 -0.27492,-0.0904 -0.14157,0 -0.26032,0.039 -0.27492,0.0904 l -0.008,0.19844 0.16743,0.14056 -7e-5,0.23667"
       sodipodi:nodetypes="ccccccccc" />
    <path
       id="rect616"
       style="fill:#ffffff;fill-opacity:0;stroke:#ffffff;stroke-width:0.0799999;stroke-linecap:square;stroke-miterlimit:40.2;stroke-dasharray:none;stroke-opacity:1;paint-order:markers stroke fill"
       d="m 185.0781,130.50718 c -0.0151,0.0157 -0.009,0.0397 -0.009,0.0647 6.1e-4,0.2677 0.002,0.80309 0.002,0.80309 l -0.002,0.56637 0.18442,-9.9e-4 0.074,-0.72144 0.0413,-0.002 0.12888,0.72736 0.1233,-0.003 0.004,-0.56224 -0.002,-0.81305 c 0,0 0.001,-0.0416 -0.0118,-0.0547 -0.0129,-0.0127 -0.0531,-0.0107 -0.0531,-0.0107 l -0.44006,-3.6e-4 c 0,0 -0.0308,-0.003 -0.0402,0.007 z"
       sodipodi:nodetypes="sccccccccccaccs" />
    <path
       style="fill:#ffffff;fill-opacity:0;stroke:#ffffff;stroke-width:0.0799999;stroke-linecap:square;stroke-miterlimit:40.2;stroke-dasharray:none;stroke-opacity:1;paint-order:markers stroke fill"
       d="m 185.47605,130.36723 c 3.3e-4,-0.0434 6.6e-4,-0.0868 -0.002,-0.12905 -0.003,-0.0422 -0.01,-0.0831 -0.0162,-0.12409 -0.0668,6.7e-4 -0.13369,0.001 -0.20054,0.002 -0.009,0.0482 -0.0172,0.0965 -0.0212,0.13954 -0.004,0.043 -0.003,0.0809 -0.003,0.11884"
       id="path619"
       inkscape:path-effect="#path-effect619"
       inkscape:original-d="m 185.47605,130.36723 c 3.3e-4,-0.0434 6.6e-4,-0.0868 9.9e-4,-0.13022 -0.007,-0.041 -0.0196,-0.12292 -0.0196,-0.12292 -0.0668,6.7e-4 -0.13369,0.001 -0.20054,0.002 0,0 -0.0172,0.0965 -0.0258,0.14469 6e-4,0.0379 0.001,0.0758 0.002,0.11369"
       sodipodi:nodetypes="cccccc" />
  </g>
</svg>
