<?xml version="1.0" encoding="UTF-8" standalone="no"?>
<!-- Created with Inkscape (http://www.inkscape.org/) -->

<svg
   width="20.999994mm"
   height="20.999994mm"
   viewBox="0 0 20.999994 20.999994"
   version="1.1"
   id="svg1"
   inkscape:version="1.3 (0e150ed6c4, 2023-07-21)"
   sodipodi:docname="gameAssets.svg"
   xmlns:inkscape="http://www.inkscape.org/namespaces/inkscape"
   xmlns:sodipodi="http://sodipodi.sourceforge.net/DTD/sodipodi-0.dtd"
   xmlns:xlink="http://www.w3.org/1999/xlink"
   xmlns="http://www.w3.org/2000/svg"
   xmlns:svg="http://www.w3.org/2000/svg">
  <sodipodi:namedview
     id="namedview1"
     pagecolor="#505050"
     bordercolor="#ffffff"
     borderopacity="1"
     inkscape:showpageshadow="0"
     inkscape:pageopacity="0"
     inkscape:pagecheckerboard="1"
     inkscape:deskcolor="#505050"
     inkscape:document-units="mm"
     showguides="true"
     inkscape:zoom="2.8284271"
     inkscape:cx="360.09413"
     inkscape:cy="402.52053"
     inkscape:window-width="2400"
     inkscape:window-height="1421"
     inkscape:window-x="3191"
     inkscape:window-y="-9"
     inkscape:window-maximized="1"
     inkscape:current-layer="g729"
     showgrid="false">
    <sodipodi:guide
       position="258.87206,235.79898"
       orientation="0,-1"
       id="guide652"
       inkscape:locked="false" />
    <sodipodi:guide
       position="258.74344,238.7924"
       orientation="0,-1"
       id="guide653"
       inkscape:locked="false" />
    <sodipodi:guide
       position="258.90714,235.51835"
       orientation="0,-1"
       id="guide654"
       inkscape:locked="false" />
    <sodipodi:guide
       position="258.85452,234.86354"
       orientation="0,-1"
       id="guide655"
       inkscape:locked="false" />
    <sodipodi:guide
       position="258.73174,234.43089"
       orientation="0,-1"
       id="guide656"
       inkscape:locked="false" />
    <sodipodi:guide
       position="262.46183,236.93905"
       orientation="1,0"
       id="guide657"
       inkscape:locked="false" />
  </sodipodi:namedview>
  <defs
     id="defs1">
    <linearGradient
       id="linearGradient22"
       inkscape:collect="always">
      <stop
         style="stop-color:#ffffff;stop-opacity:1;"
         offset="0"
         id="stop22" />
      <stop
         style="stop-color:#ffffff;stop-opacity:0.82947975;"
         offset="0.47887325"
         id="stop24" />
      <stop
         style="stop-color:#ffffff;stop-opacity:0;"
         offset="1"
         id="stop23" />
    </linearGradient>
    <linearGradient
       id="swatch70"
       inkscape:swatch="solid">
      <stop
         style="stop-color:#000000;stop-opacity:1;"
         offset="0"
         id="stop70" />
    </linearGradient>
    <linearGradient
       id="swatch69"
       inkscape:swatch="solid">
      <stop
         style="stop-color:#5f5700;stop-opacity:1;"
         offset="0"
         id="stop69" />
    </linearGradient>
    <radialGradient
       inkscape:collect="always"
       xlink:href="#linearGradient22"
       id="radialGradient23"
       cx="14.359926"
       cy="170.68954"
       fx="14.359926"
       fy="170.68954"
       r="13.82751"
       gradientTransform="translate(0,-1.1973874e-4)"
       gradientUnits="userSpaceOnUse" />
  </defs>
  <g
     inkscape:groupmode="layer"
     id="layer15"
     inkscape:label="World"
     transform="translate(80.465479,-100.03433)">
    <g
       id="g24"
       inkscape:label="attackIndecators"
       transform="translate(-200.86907)">
      <path
         id="rect22"
         style="fill:#d0d8de;fill-opacity:0;stroke:url(#radialGradient23);stroke-linecap:square;paint-order:markers stroke fill"
         transform="rotate(-45)"
         d="m 14.317497,157.36203 c 0.164443,0 0.296829,0.13539 0.296829,0.30356 v 7.63061 c 0,0.16817 -0.132386,0.30356 -0.296829,0.30356 -0.164444,0 -0.29683,-0.13539 -0.29683,-0.30356 v -7.63061 c 0,-0.16817 0.132386,-0.30356 0.29683,-0.30356 z m 5.132212,13.36995 c 0,0.16444 0.135387,0.29683 0.303558,0.29683 h 7.630611 c 0.168171,0 0.303558,-0.13239 0.303558,-0.29683 0,-0.16444 -0.135387,-0.29683 -0.303558,-0.29683 h -7.630611 c -0.168171,0 -0.303558,0.13239 -0.303558,0.29683 z m 2.024604,7.06147 a 10,10 0 0 1 -14.1421352,0 10,10 0 0 1 0,-14.14213 10,10 0 0 1 14.1421352,0 10,10 0 0 1 0,14.14213 z M 9.2701426,170.64711 c 0,-0.16444 -0.1353868,-0.29683 -0.3035579,-0.29683 H 1.3359732 c -0.168171,0 -0.3035578,0.13239 -0.3035578,0.29683 0,0.16444 0.1353868,0.29683 0.3035578,0.29683 h 7.6306115 c 0.1681711,0 0.3035579,-0.13239 0.3035579,-0.29683 z m 5.1322044,5.13223 c 0.164443,0 0.296829,0.13539 0.296829,0.30356 v 7.63061 c 0,0.16817 -0.132386,0.30356 -0.296829,0.30356 -0.164444,0 -0.29683,-0.13539 -0.29683,-0.30356 v -7.63061 c 0,-0.16817 0.132386,-0.30356 0.29683,-0.30356 z"
         inkscape:export-filename="Finished\Outline\bombOutline.svg"
         inkscape:export-xdpi="96"
         inkscape:export-ydpi="96" />
    </g>
  </g>
</svg>
