<?xml version="1.0" encoding="UTF-8" standalone="no"?>
<!-- Created with Inkscape (http://www.inkscape.org/) -->

<svg
   width="11.47983mm"
   height="4.2029696mm"
   viewBox="0 0 11.47983 4.2029696"
   version="1.1"
   id="svg1"
   inkscape:version="1.3 (0e150ed6c4, 2023-07-21)"
   sodipodi:docname="gameAssets.svg"
   xmlns:inkscape="http://www.inkscape.org/namespaces/inkscape"
   xmlns:sodipodi="http://sodipodi.sourceforge.net/DTD/sodipodi-0.dtd"
   xmlns="http://www.w3.org/2000/svg"
   xmlns:svg="http://www.w3.org/2000/svg">
  <sodipodi:namedview
     id="namedview1"
     pagecolor="#505050"
     bordercolor="#ffffff"
     borderopacity="1"
     inkscape:showpageshadow="0"
     inkscape:pageopacity="0"
     inkscape:pagecheckerboard="1"
     inkscape:deskcolor="#505050"
     inkscape:document-units="mm"
     showguides="true"
     inkscape:zoom="128"
     inkscape:cx="655.67969"
     inkscape:cy="407.11328"
     inkscape:window-width="2560"
     inkscape:window-height="1521"
     inkscape:window-x="-9"
     inkscape:window-y="-9"
     inkscape:window-maximized="1"
     inkscape:current-layer="layer8"
     showgrid="false" />
  <defs
     id="defs1">
    <inkscape:path-effect
       effect="bspline"
       id="path-effect354"
       is_visible="true"
       lpeversion="1.3"
       weight="33.333333"
       steps="2"
       helper_size="0"
       apply_no_weight="true"
       apply_with_weight="true"
       only_selected="false"
       uniform="false" />
    <inkscape:path-effect
       effect="bspline"
       id="path-effect352"
       is_visible="true"
       lpeversion="1.3"
       weight="33.333333"
       steps="2"
       helper_size="0"
       apply_no_weight="true"
       apply_with_weight="true"
       only_selected="false"
       uniform="false" />
    <inkscape:path-effect
       effect="bspline"
       id="path-effect350"
       is_visible="true"
       lpeversion="1.3"
       weight="33.333333"
       steps="2"
       helper_size="0"
       apply_no_weight="true"
       apply_with_weight="true"
       only_selected="false"
       uniform="false" />
    <inkscape:path-effect
       effect="bspline"
       id="path-effect348"
       is_visible="true"
       lpeversion="1.3"
       weight="33.333333"
       steps="2"
       helper_size="0"
       apply_no_weight="true"
       apply_with_weight="true"
       only_selected="false"
       uniform="false" />
    <inkscape:path-effect
       effect="bspline"
       id="path-effect346"
       is_visible="true"
       lpeversion="1.3"
       weight="33.333333"
       steps="2"
       helper_size="0"
       apply_no_weight="true"
       apply_with_weight="true"
       only_selected="false"
       uniform="false" />
    <linearGradient
       id="swatch70"
       inkscape:swatch="solid">
      <stop
         style="stop-color:#000000;stop-opacity:1;"
         offset="0"
         id="stop70" />
    </linearGradient>
    <linearGradient
       id="swatch69"
       inkscape:swatch="solid">
      <stop
         style="stop-color:#5f5700;stop-opacity:1;"
         offset="0"
         id="stop69" />
    </linearGradient>
  </defs>
  <g
     inkscape:groupmode="layer"
     id="layer10"
     inkscape:label="Launcher"
     transform="translate(-91.213228,-36.465907)">
    <g
       id="g354"
       transform="translate(-1.3330068,-7.273072)">
      <path
         style="fill:#ffffff;fill-opacity:0;stroke:#ffffff;stroke-width:0.28;stroke-linecap:round;stroke-dasharray:none;paint-order:markers fill stroke"
         id="path336"
         sodipodi:type="arc"
         sodipodi:cx="103.3384"
         sodipodi:cy="45.617836"
         sodipodi:rx="0.54766518"
         sodipodi:ry="1.7286618"
         sodipodi:start="0"
         sodipodi:end="6.2329915"
         sodipodi:open="true"
         sodipodi:arc-type="arc"
         d="m 103.88607,45.617836 a 0.54766518,1.7286618 0 0 1 -0.5408,1.728526 0.54766518,1.7286618 0 0 1 -0.55436,-1.685146 0.54766518,1.7286618 0 0 1 0.52688,-1.770817 0.54766518,1.7286618 0 0 1 0.56759,1.640705" />
      <path
         id="path337"
         style="fill:none;fill-opacity:0;stroke:#ffffff;stroke-width:0.280778;stroke-linecap:square;stroke-dasharray:none;paint-order:markers fill stroke"
         d="m 103.24688,43.891815 c 0,0 -3.07703,0.0017 -3.387911,-0.008 v 0.0018 0 c -1.3002,-0.032 -2.31936,0.82792 -2.28616,1.77768 0.036,0.91036 1.02776,1.64604 2.27376,1.68464 1.140881,0.0036 3.400311,0.002 3.400311,0.002"
         sodipodi:nodetypes="cccsccc" />
      <path
         style="fill:#ffffff;fill-opacity:0;stroke:#ffffff;stroke-width:0.07;stroke-linecap:square;stroke-dasharray:none;paint-order:markers fill stroke"
         d="m 173.78371,126.23002 c -0.44167,6.7e-4 -0.88333,0.001 -1.32499,0.002 6.7e-4,0.26288 0.001,0.52577 0.002,0.66706 3.6e-4,0.14129 4e-4,0.16009 0.01,0.16248 0.01,0.002 0.0312,-0.012 0.0763,-0.0414 0.0451,-0.0294 0.11482,-0.0745 0.1846,-0.11968 0.001,-0.16184 0.003,-0.32368 0.004,-0.48553 0.31539,1.5e-4 0.63077,3.1e-4 0.94616,4.6e-4"
         id="path338"
         inkscape:path-effect="#path-effect346"
         inkscape:original-d="m 173.78371,126.23002 c -0.44167,6.5e-4 -1.32499,0.002 -1.32499,0.002 0,0 0.001,0.52577 0.002,0.78865 4e-5,0.0197 9e-5,0.0385 1.3e-4,0.0561 0.0192,-0.0128 0.0408,-0.0272 0.0611,-0.0408 0.0698,-0.0452 0.20935,-0.13549 0.20935,-0.13549 0,0 0.003,-0.32368 0.004,-0.48553 0,0 0.63077,3.1e-4 0.94616,4.6e-4"
         sodipodi:nodetypes="cccccccc"
         transform="matrix(4,0,0,4,-597.14492,-460.44533)" />
      <path
         style="fill:#ffffff;fill-opacity:0;stroke:#ffffff;stroke-width:0.07;stroke-linecap:square;stroke-dasharray:none;paint-order:markers fill stroke"
         d="m 173.13203,126.42966 c 0.004,0.0193 0.0107,0.0503 0.0111,0.0785 4.7e-4,0.0282 -0.004,0.0736 -0.008,0.1094 -0.004,0.0358 -0.007,0.067 -0.009,0.10383 -0.002,0.0368 -0.002,0.0786 -0.002,0.10889 -1.3e-4,0.0303 -2.2e-4,0.0491 0.004,0.0585 0.004,0.009 0.0118,0.009 0.0396,0.009 0.0279,-2e-5 0.0756,-5e-5 0.12344,-8e-5 3.3e-4,-0.1576 6.7e-4,-0.31519 10e-4,-0.47279"
         id="path339"
         inkscape:path-effect="#path-effect348"
         inkscape:original-d="m 173.13203,126.42966 c 0.004,0.0193 0.0107,0.0503 0.0151,0.0712 -0.003,0.0356 -0.008,0.0809 -0.0119,0.12139 -0.003,0.0312 -0.007,0.0623 -0.01,0.0937 -1.9e-4,0.0423 -3.8e-4,0.0841 -5.7e-4,0.12592 -8e-5,0.0187 -1.7e-4,0.0375 -2.5e-4,0.0563 0.008,0 0.0158,-10e-6 0.0237,-10e-6 0.0478,-3e-5 0.14339,-9e-5 0.14339,-9e-5 0,0 7.8e-4,-0.31519 10e-4,-0.47279"
         sodipodi:nodetypes="csacccccc"
         transform="matrix(4,0,0,4,-597.14492,-460.44533)" />
      <path
         style="fill:#ffffff;fill-opacity:0;stroke:#ffffff;stroke-width:0.03;stroke-linecap:square;stroke-dasharray:none;paint-order:markers fill stroke"
         d="m 172.75431,126.80569 c 0.1223,0.0131 0.2446,0.0262 0.3669,0.0393"
         id="path340"
         inkscape:path-effect="#path-effect350"
         inkscape:original-d="m 172.75431,126.80569 c 0.1223,0.0131 0.2446,0.0262 0.3669,0.0393"
         sodipodi:nodetypes="cc"
         transform="matrix(4,0,0,4,-597.14492,-460.44533)" />
      <path
         style="fill:#ffffff;fill-opacity:0;stroke:#ffffff;stroke-width:0.07;stroke-linecap:square;stroke-dasharray:none;paint-order:markers fill stroke"
         d="m 172.47217,126.20108 c 0.0186,-0.0162 0.0372,-0.0324 0.0558,-0.0486 0.4582,2.8e-4 0.91639,5.5e-4 1.37459,8.3e-4"
         id="path341"
         inkscape:path-effect="#path-effect352"
         inkscape:original-d="m 172.47217,126.20108 c 0.0186,-0.0162 0.0558,-0.0486 0.0558,-0.0486 0,0 0.91639,5.5e-4 1.37459,8.3e-4"
         sodipodi:nodetypes="ccc"
         transform="matrix(4,0,0,4,-597.14492,-460.44533)" />
      <path
         style="fill:#ffffff;fill-opacity:0;stroke:#ffffff;stroke-width:0.07;stroke-linecap:round;stroke-dasharray:none;paint-order:markers fill stroke"
         d="m 174.90744,126.87389 c -0.0289,-0.12423 -0.0578,-0.24846 -0.0575,-0.36515 3.4e-4,-0.11669 0.0299,-0.22582 0.0595,-0.33497"
         id="path342"
         inkscape:path-effect="#path-effect354"
         inkscape:original-d="m 174.90744,126.87389 c -0.0289,-0.12423 -0.0578,-0.24846 -0.0867,-0.37269 0.0296,-0.10914 0.0591,-0.21829 0.0887,-0.32743"
         sodipodi:nodetypes="csc"
         transform="matrix(4,0,0,4,-597.14492,-460.44533)" />
      <path
         style="fill:#ffffff;fill-opacity:0;stroke:#ffffff;stroke-width:0.28;stroke-linecap:round;stroke-dasharray:none;paint-order:markers fill stroke"
         id="path343"
         sodipodi:type="arc"
         sodipodi:cx="99.251183"
         sodipodi:cy="44.481117"
         sodipodi:rx="0.040925648"
         sodipodi:ry="0.043848906"
         sodipodi:start="0"
         sodipodi:end="6.2329915"
         sodipodi:open="true"
         sodipodi:arc-type="arc"
         d="m 99.292108,44.481117 a 0.04092565,0.04384891 0 0 1 -0.04041,0.04385 0.04092565,0.04384891 0 0 1 -0.04143,-0.04274 0.04092565,0.04384891 0 0 1 0.03937,-0.04492 0.04092565,0.04384891 0 0 1 0.04242,0.04162" />
      <path
         style="fill:#ffffff;fill-opacity:0;stroke:#ffffff;stroke-width:0.28;stroke-linecap:round;stroke-dasharray:none;paint-order:markers fill stroke"
         id="path344"
         sodipodi:type="arc"
         sodipodi:cx="100.32589"
         sodipodi:cy="44.48481"
         sodipodi:rx="0.032155864"
         sodipodi:ry="0.049695425"
         sodipodi:start="0"
         sodipodi:end="6.2329915"
         sodipodi:open="true"
         sodipodi:arc-type="arc"
         d="m 100.35805,44.48481 a 0.03215586,0.04969542 0 0 1 -0.0318,0.04969 0.03215586,0.04969542 0 0 1 -0.0326,-0.04844 0.03215586,0.04969542 0 0 1 0.0309,-0.05091 0.03215586,0.04969542 0 0 1 0.0333,0.04717" />
      <path
         style="fill:#ffffff;fill-opacity:0;stroke:#ffffff;stroke-width:0.28;stroke-linecap:round;stroke-dasharray:none;paint-order:markers fill stroke"
         id="path345"
         sodipodi:type="arc"
         sodipodi:cx="99.808861"
         sodipodi:cy="44.477577"
         sodipodi:rx="0.029232604"
         sodipodi:ry="0.043848906"
         sodipodi:start="0"
         sodipodi:end="6.2329915"
         sodipodi:open="true"
         sodipodi:arc-type="arc"
         d="m 99.838093,44.477577 a 0.0292326,0.04384891 0 0 1 -0.02886,0.04385 0.0292326,0.04384891 0 0 1 -0.02959,-0.04274 0.0292326,0.04384891 0 0 1 0.02812,-0.04492 0.0292326,0.04384891 0 0 1 0.0303,0.04162" />
    </g>
  </g>
</svg>
