<?xml version="1.0" encoding="UTF-8" standalone="no"?>
<!-- Created with Inkscape (http://www.inkscape.org/) -->

<svg
   width="20.968689mm"
   height="7.3541541mm"
   viewBox="0 0 20.968689 7.3541541"
   version="1.1"
   id="svg1"
   inkscape:version="1.3 (0e150ed6c4, 2023-07-21)"
   sodipodi:docname="gameAssets.svg"
   xmlns:inkscape="http://www.inkscape.org/namespaces/inkscape"
   xmlns:sodipodi="http://sodipodi.sourceforge.net/DTD/sodipodi-0.dtd"
   xmlns="http://www.w3.org/2000/svg"
   xmlns:svg="http://www.w3.org/2000/svg">
  <sodipodi:namedview
     id="namedview1"
     pagecolor="#505050"
     bordercolor="#ffffff"
     borderopacity="1"
     inkscape:showpageshadow="0"
     inkscape:pageopacity="0"
     inkscape:pagecheckerboard="1"
     inkscape:deskcolor="#505050"
     inkscape:document-units="mm"
     showguides="true"
     inkscape:zoom="16"
     inkscape:cx="689.875"
     inkscape:cy="574.09375"
     inkscape:window-width="2560"
     inkscape:window-height="1521"
     inkscape:window-x="-9"
     inkscape:window-y="-9"
     inkscape:window-maximized="1"
     inkscape:current-layer="layer13"
     showgrid="false">
    <sodipodi:guide
       position="102.1087,282.04885"
       orientation="1,0"
       id="guide366"
       inkscape:locked="false" />
  </sodipodi:namedview>
  <defs
     id="defs1">
    <inkscape:path-effect
       effect="bspline"
       id="path-effect576"
       is_visible="true"
       lpeversion="1.3"
       weight="33.333333"
       steps="2"
       helper_size="0"
       apply_no_weight="true"
       apply_with_weight="true"
       only_selected="false"
       uniform="false" />
    <inkscape:path-effect
       effect="bspline"
       id="path-effect574"
       is_visible="true"
       lpeversion="1.3"
       weight="33.333333"
       steps="2"
       helper_size="0"
       apply_no_weight="true"
       apply_with_weight="true"
       only_selected="false"
       uniform="false" />
    <inkscape:path-effect
       effect="bspline"
       id="path-effect569"
       is_visible="true"
       lpeversion="1.3"
       weight="33.333333"
       steps="2"
       helper_size="0"
       apply_no_weight="true"
       apply_with_weight="true"
       only_selected="false"
       uniform="false" />
    <inkscape:path-effect
       effect="bspline"
       id="path-effect563"
       is_visible="true"
       lpeversion="1.3"
       weight="33.333333"
       steps="2"
       helper_size="0"
       apply_no_weight="true"
       apply_with_weight="true"
       only_selected="false"
       uniform="false" />
    <inkscape:path-effect
       effect="bspline"
       id="path-effect559"
       is_visible="true"
       lpeversion="1.3"
       weight="33.333333"
       steps="2"
       helper_size="0"
       apply_no_weight="true"
       apply_with_weight="true"
       only_selected="false"
       uniform="false" />
    <inkscape:path-effect
       effect="bspline"
       id="path-effect557"
       is_visible="true"
       lpeversion="1.3"
       weight="33.333333"
       steps="2"
       helper_size="0"
       apply_no_weight="true"
       apply_with_weight="true"
       only_selected="false"
       uniform="false" />
    <inkscape:path-effect
       effect="bspline"
       id="path-effect555"
       is_visible="true"
       lpeversion="1.3"
       weight="33.333333"
       steps="2"
       helper_size="0"
       apply_no_weight="true"
       apply_with_weight="true"
       only_selected="false"
       uniform="false" />
    <inkscape:path-effect
       effect="bspline"
       id="path-effect553"
       is_visible="true"
       lpeversion="1.3"
       weight="33.333333"
       steps="2"
       helper_size="0"
       apply_no_weight="true"
       apply_with_weight="true"
       only_selected="false"
       uniform="false" />
    <inkscape:path-effect
       effect="bspline"
       id="path-effect551"
       is_visible="true"
       lpeversion="1.3"
       weight="33.333333"
       steps="2"
       helper_size="0"
       apply_no_weight="true"
       apply_with_weight="true"
       only_selected="false"
       uniform="false" />
    <inkscape:path-effect
       effect="bspline"
       id="path-effect548"
       is_visible="true"
       lpeversion="1.3"
       weight="33.333333"
       steps="2"
       helper_size="0"
       apply_no_weight="true"
       apply_with_weight="true"
       only_selected="false"
       uniform="false" />
    <inkscape:path-effect
       effect="bspline"
       id="path-effect545"
       is_visible="true"
       lpeversion="1.3"
       weight="33.333333"
       steps="2"
       helper_size="0"
       apply_no_weight="true"
       apply_with_weight="true"
       only_selected="false"
       uniform="false" />
    <inkscape:path-effect
       effect="bspline"
       id="path-effect541"
       is_visible="true"
       lpeversion="1.3"
       weight="33.333333"
       steps="2"
       helper_size="0"
       apply_no_weight="true"
       apply_with_weight="true"
       only_selected="false"
       uniform="false" />
    <inkscape:path-effect
       effect="bspline"
       id="path-effect537"
       is_visible="true"
       lpeversion="1.3"
       weight="33.333333"
       steps="2"
       helper_size="0"
       apply_no_weight="true"
       apply_with_weight="true"
       only_selected="false"
       uniform="false" />
    <inkscape:path-effect
       effect="bspline"
       id="path-effect533"
       is_visible="true"
       lpeversion="1.3"
       weight="33.333333"
       steps="2"
       helper_size="0"
       apply_no_weight="true"
       apply_with_weight="true"
       only_selected="false"
       uniform="false" />
    <linearGradient
       id="swatch70"
       inkscape:swatch="solid">
      <stop
         style="stop-color:#000000;stop-opacity:1;"
         offset="0"
         id="stop70" />
    </linearGradient>
    <linearGradient
       id="swatch69"
       inkscape:swatch="solid">
      <stop
         style="stop-color:#5f5700;stop-opacity:1;"
         offset="0"
         id="stop69" />
    </linearGradient>
  </defs>
  <g
     inkscape:groupmode="layer"
     id="layer8"
     inkscape:label="FlameThrower"
     transform="translate(-72.532831,-56.982436)">
    <g
       id="g530"
       inkscape:label="Flamer"
       transform="matrix(5.0625,0,0,5.0625,-77.038876,-781.39522)">
      <rect
         style="fill:#ffffff;fill-opacity:0;stroke:#ffffff;stroke-width:0.07;stroke-linecap:round;stroke-dasharray:none;paint-order:markers fill stroke"
         id="rect435"
         width="0.79869455"
         height="1.906715"
         x="166.19482"
         y="-32.952164"
         ry="0.0074223331"
         transform="matrix(-0.00146775,0.99999892,-0.99999959,-9.0445593e-4,0,0)" />
      <path
         style="fill:#ffffff;fill-opacity:0;stroke:#ffffff;stroke-width:0.0707693;stroke-linecap:round;stroke-dasharray:none;paint-order:markers fill stroke"
         id="path435"
         sodipodi:type="arc"
         sodipodi:cx="168.74713"
         sodipodi:cy="74.17366"
         sodipodi:rx="0.27259934"
         sodipodi:ry="0.30729607"
         sodipodi:start="0"
         sodipodi:end="6.2329915"
         sodipodi:open="true"
         sodipodi:arc-type="arc"
         d="m 169.01973,74.17366 a 0.27259934,0.30729607 0 0 1 -0.26918,0.307272 0.27259934,0.30729607 0 0 1 -0.27593,-0.29956 0.27259934,0.30729607 0 0 1 0.26225,-0.31479 0.27259934,0.30729607 0 0 1 0.28252,0.29166"
         transform="matrix(0.59138582,0.80638875,-0.9112659,0.41181848,0,0)" />
      <path
         style="fill:#ffffff;fill-opacity:1;stroke:#ffffff;stroke-width:0.0707693;stroke-linecap:round;stroke-dasharray:none;paint-order:markers fill stroke"
         id="path436"
         sodipodi:type="arc"
         sodipodi:cx="168.74792"
         sodipodi:cy="74.167297"
         sodipodi:rx="0.055632379"
         sodipodi:ry="0.062713727"
         sodipodi:start="0"
         sodipodi:end="6.2329915"
         sodipodi:open="true"
         sodipodi:arc-type="arc"
         d="m 168.80356,74.167297 a 0.05563238,0.06271373 0 0 1 -0.0549,0.06271 0.05563238,0.06271373 0 0 1 -0.0563,-0.06114 0.05563238,0.06271373 0 0 1 0.0535,-0.06424 0.05563238,0.06271373 0 0 1 0.0577,0.05952"
         transform="matrix(0.59138582,0.80638875,-0.9112659,0.41181848,0,0)" />
      <path
         style="fill:#ffffff;fill-opacity:1;stroke:#ffffff;stroke-width:0.17116;stroke-linecap:round;stroke-dasharray:none;paint-order:markers fill stroke"
         d="m 179.81538,112.62775 c 0,0 0.39067,0 0.39067,0 0,0 -0.1881,-0.62632 -0.1881,-0.62632 z"
         id="path438"
         inkscape:path-effect="#path-effect533"
         inkscape:original-d="m 179.81538,112.62775 h 0.39067 l -0.1881,-0.62632 z"
         transform="matrix(0.23030198,0.31403006,-0.40004062,0.180786,35.54322,89.852205)"
         sodipodi:nodetypes="cccc" />
      <path
         style="fill:#ffffff;fill-opacity:1;stroke:#ffffff;stroke-width:0.17116;stroke-linecap:round;stroke-dasharray:none;paint-order:markers fill stroke"
         d="m 179.81538,112.62775 c 0,0 0.39067,0 0.39067,0 0,0 -0.1881,-0.62632 -0.1881,-0.62632 z"
         id="path439"
         inkscape:path-effect="#path-effect537"
         inkscape:original-d="m 179.81538,112.62775 h 0.39067 l -0.1881,-0.62632 z"
         transform="matrix(0.41084965,-0.16517405,0.21041402,0.3225151,-65.319634,160.24233)"
         sodipodi:nodetypes="cccc" />
      <path
         style="fill:#ffffff;fill-opacity:1;stroke:#ffffff;stroke-width:0.17116;stroke-linecap:round;stroke-dasharray:none;paint-order:markers fill stroke"
         d="m 179.81538,112.62775 c 0,0 0.39067,0 0.39067,0 0,0 -0.1881,-0.62632 -0.1881,-0.62632 z"
         id="path440"
         inkscape:path-effect="#path-effect541"
         inkscape:original-d="m 179.81538,112.62775 h 0.39067 l -0.1881,-0.62632 z"
         transform="matrix(-0.21398491,-0.32106405,0.40900117,-0.16797718,24.92287,243.22563)"
         sodipodi:nodetypes="cccc" />
      <path
         style="fill:#ffffff;fill-opacity:1;stroke:#ffffff;stroke-width:0.17116;stroke-linecap:round;stroke-dasharray:none;paint-order:markers fill stroke"
         d="m 179.81538,112.62775 c 0,0 0.39067,0 0.39067,0 0,0 -0.1881,-0.62632 -0.1881,-0.62632 z"
         id="path441"
         inkscape:path-effect="#path-effect545"
         inkscape:original-d="m 179.81538,112.62775 h 0.39067 l -0.1881,-0.62632 z"
         transform="matrix(-0.3972152,0.18458511,-0.23514163,-0.31181212,130.03939,168.30938)"
         sodipodi:nodetypes="cccc" />
      <path
         style="fill:#ffffff;fill-opacity:0;stroke:#ffffff;stroke-width:0.0708291;stroke-linecap:round;stroke-dasharray:none;paint-order:markers fill stroke"
         id="path443"
         sodipodi:type="arc"
         sodipodi:cx="81.033997"
         sodipodi:cy="-167.31601"
         sodipodi:rx="0.30523905"
         sodipodi:ry="0.2749007"
         sodipodi:start="0"
         sodipodi:end="6.2329915"
         sodipodi:open="true"
         sodipodi:arc-type="arc"
         d="m 81.339236,-167.31601 a 0.30523905,0.2749007 0 0 1 -0.301409,0.27488 0.30523905,0.2749007 0 0 1 -0.308973,-0.26798 0.30523905,0.2749007 0 0 1 0.293654,-0.28161 0.30523905,0.2749007 0 0 1 0.316343,0.26092"
         transform="matrix(-0.8979967,0.44000219,-0.62237472,-0.78271943,0,0)" />
      <path
         style="fill:#ffffff;fill-opacity:1;stroke:#ffffff;stroke-width:0.0708291;stroke-linecap:round;stroke-dasharray:none;paint-order:markers fill stroke"
         id="path446"
         sodipodi:type="arc"
         sodipodi:cx="81.034897"
         sodipodi:cy="-167.3217"
         sodipodi:rx="0.062293533"
         sodipodi:ry="0.056102406"
         sodipodi:start="0"
         sodipodi:end="6.2329915"
         sodipodi:open="true"
         sodipodi:arc-type="arc"
         d="m 81.09719,-167.3217 a 0.06229353,0.05610241 0 0 1 -0.06151,0.0561 0.06229353,0.05610241 0 0 1 -0.06306,-0.0547 0.06229353,0.05610241 0 0 1 0.05993,-0.0575 0.06229353,0.05610241 0 0 1 0.06456,0.0532"
         transform="matrix(-0.8979967,0.44000219,-0.62237472,-0.78271943,0,0)" />
      <path
         style="fill:#ffffff;fill-opacity:1;stroke:#ffffff;stroke-width:0.17116;stroke-linecap:round;stroke-dasharray:none;paint-order:markers fill stroke"
         d="m 179.81538,112.62775 c 0,0 0.39067,0 0.39067,0 0,0 -0.1881,-0.62632 -0.1881,-0.62632 z"
         id="path449"
         inkscape:path-effect="#path-effect548"
         inkscape:original-d="m 179.81538,112.62775 h 0.39067 l -0.1881,-0.62632 z"
         transform="matrix(-0.39157666,0.1918655,-0.24441607,-0.30738589,129.21821,166.50059)"
         sodipodi:nodetypes="cccc" />
      <path
         style="fill:#ffffff;fill-opacity:1;stroke:#ffffff;stroke-width:0.17116;stroke-linecap:round;stroke-dasharray:none;paint-order:markers fill stroke"
         d="m 179.81538,112.62775 c 0,0 0.39067,0 0.39067,0 0,0 -0.1881,-0.62632 -0.1881,-0.62632 z"
         id="path451"
         inkscape:path-effect="#path-effect551"
         inkscape:original-d="m 179.81538,112.62775 h 0.39067 l -0.1881,-0.62632 z"
         transform="matrix(0.22492605,0.31642208,-0.40308779,0.17656593,36.01022,89.883263)"
         sodipodi:nodetypes="cccc" />
      <path
         style="fill:#ffffff;fill-opacity:1;stroke:#ffffff;stroke-width:0.17116;stroke-linecap:round;stroke-dasharray:none;paint-order:markers fill stroke"
         d="m 179.81538,112.62775 c 0,0 0.39067,0 0.39067,0 0,0 -0.1881,-0.62632 -0.1881,-0.62632 z"
         id="path465"
         inkscape:path-effect="#path-effect553"
         inkscape:original-d="m 179.81538,112.62775 h 0.39067 l -0.1881,-0.62632 z"
         transform="matrix(0.40111319,-0.17931556,0.22842878,0.31487202,-66.417494,163.63635)"
         sodipodi:nodetypes="cccc" />
      <path
         style="fill:#ffffff;fill-opacity:1;stroke:#ffffff;stroke-width:0.17116;stroke-linecap:round;stroke-dasharray:none;paint-order:markers fill stroke"
         d="m 179.81538,112.62775 c 0,0 0.39067,0 0.39067,0 0,0 -0.1881,-0.62632 -0.1881,-0.62632 z"
         id="path470"
         inkscape:path-effect="#path-effect555"
         inkscape:original-d="m 179.81538,112.62775 h 0.39067 l -0.1881,-0.62632 z"
         transform="matrix(-0.24915202,-0.30503388,0.38858046,-0.1955832,32.70428,243.42931)"
         sodipodi:nodetypes="cccc" />
      <rect
         style="fill:#ffffff;fill-opacity:0;stroke:#ffffff;stroke-width:0.0630149;stroke-linecap:round;stroke-dasharray:none;paint-order:markers fill stroke"
         id="rect472"
         width="2.7694106"
         height="0.19715439"
         x="30.64526"
         y="165.83755"
         ry="0.019286841" />
      <path
         style="fill:#ffffff;fill-opacity:0;stroke:#ffffff;stroke-width:0.07;stroke-linecap:round;stroke-dasharray:none;paint-order:markers fill stroke"
         d="m 184.75883,116.32238 c 0,0 0,-0.56419 0,-0.56419 0,0 0.24263,0.14324 0.24263,0.14324 0,0 -0.006,0.24555 -0.006,0.24555 z"
         id="path476"
         inkscape:path-effect="#path-effect557"
         inkscape:original-d="m 184.75883,116.32238 v -0.56419 l 0.24263,0.14324 -0.006,0.24555 z"
         transform="translate(-151.34996,49.90858)" />
      <path
         style="fill:#ffffff;fill-opacity:0;stroke:#ffffff;stroke-width:0.07;stroke-linecap:round;stroke-dasharray:none;paint-order:markers fill stroke"
         d="m 180.9391,115.93456 c -0.075,0.0419 -0.22509,0.1257 -0.37515,0.2095 0,0 0.0173,0.0572 0.0173,0.0572 0,0 -0.43182,0.37892 -0.43182,0.37892 0,0 0.0524,0.0749 0.0524,0.0749 0,0 0.45238,-0.24316 0.45238,-0.24316 0,0 0.0751,0.24355 0.0751,0.24355 0,0 0.4703,-0.29936 0.4703,-0.29936 0,0 0.0105,-0.56353 0.0105,-0.56353 -0.0653,0.0334 -0.13064,0.0667 -0.16331,0.0834 -0.0327,0.0167 -0.0327,0.0167 -0.1077,0.0586 z"
         id="path477"
         inkscape:path-effect="#path-effect559"
         inkscape:original-d="m 181.01413,115.89266 c -0.15006,0.0838 -0.45018,0.2514 -0.45018,0.2514 l 0.0173,0.0572 -0.43182,0.37892 0.0524,0.0749 0.45238,-0.24316 0.0751,0.24355 0.4703,-0.29936 0.0105,-0.56353 c 0,0 -0.13065,0.0667 -0.19597,0.10007 z"
         sodipodi:nodetypes="cccccccccc"
         transform="translate(-150.55775,49.89981)" />
      <path
         style="fill:#ffffff;fill-opacity:0;stroke:#ffffff;stroke-width:0.07;stroke-linecap:round;stroke-dasharray:none;paint-order:markers fill stroke"
         d="m 180.70018,116.19216 c 0.002,0.004 0.007,0.0174 0.0168,0.0424 0.01,0.025 0.0242,0.0642 0.0337,0.0895 0.009,0.0252 0.0138,0.0369 0.0212,0.0398 0.007,0.003 0.0182,-0.003 0.0612,-0.0246 0.043,-0.0219 0.11885,-0.0606 0.16075,-0.082 0.0419,-0.0214 0.0519,-0.0264 0.0562,-0.0347 0.004,-0.008 0.004,-0.0199 0.002,-0.0512 -0.002,-0.0313 -0.004,-0.0838 -0.005,-0.1109 -0.001,-0.0271 -0.002,-0.0346 -0.008,-0.0352 -0.006,-6.1e-4 -0.0179,0.005 -0.0713,0.0301 -0.0533,0.0251 -0.14662,0.0687 -0.23991,0.11226 -0.0101,0.007 -0.0225,0.0152 -0.0265,0.0178 -0.004,0.003 -0.003,0.003 -0.001,0.007 z"
         id="path505"
         inkscape:path-effect="#path-effect563"
         inkscape:original-d="m 180.69842,116.18791 c -0.003,0.0112 0.009,0.0216 0.0134,0.0324 0.0147,0.0392 0.0294,0.0784 0.044,0.11762 0.004,0.0114 0.009,0.0228 0.0128,0.0341 0.0107,-0.005 0.0214,-0.0109 0.032,-0.0163 0.0754,-0.0385 0.15125,-0.0772 0.2259,-0.11527 0.009,-0.005 0.019,-0.01 0.0285,-0.0145 -5.1e-4,-0.0118 -0.001,-0.0234 -0.002,-0.0353 -0.002,-0.0508 -0.004,-0.10325 -0.007,-0.15045 -2.9e-4,-0.007 -6.3e-4,-0.0145 -9.4e-4,-0.0218 -0.0125,0.006 -0.024,0.0117 -0.0374,0.0182 -0.0933,0.0436 -0.27986,0.1308 -0.27986,0.1308 0,0 -0.0225,0.0152 -0.0304,0.0205 z"
         sodipodi:nodetypes="accaccaccacca"
         transform="translate(-150.55775,49.89981)" />
      <rect
         style="fill:#ffffff;fill-opacity:0;stroke:#ffffff;stroke-width:0.07;stroke-linecap:round;stroke-dasharray:none;paint-order:markers fill stroke"
         id="rect505"
         width="0.11400715"
         height="0.173934"
         x="31.176968"
         y="166.03802"
         ry="0.018603515" />
      <rect
         style="fill:#ffffff;fill-opacity:0;stroke:#ffffff;stroke-width:0.07;stroke-linecap:round;stroke-dasharray:none;paint-order:markers fill stroke"
         id="rect507"
         width="0.10816064"
         height="0.17978051"
         x="31.963316"
         y="166.03802"
         ry="0.018603515" />
      <path
         style="fill:#ffffff;fill-opacity:0;stroke:#ffffff;stroke-width:0.03;stroke-linecap:round;stroke-dasharray:none;paint-order:markers fill stroke"
         d="m 180.16346,116.62201 c -0.008,0.0184 -0.0165,0.037 -0.0219,0.0502 -0.005,0.0132 -0.008,0.021 -0.009,0.0319 -0.002,0.0109 -0.003,0.0251 -0.005,0.0372 -0.002,0.0121 -0.004,0.0223 -0.005,0.0305 -0.001,0.008 -0.001,0.0148 -0.001,0.0233 0,0.008 0,0.0192 2.8e-4,0.0256 2.9e-4,0.006 0.001,0.009 0.002,0.0133 6.2e-4,0.004 0.001,0.0107 0.002,0.0149 8.3e-4,0.004 0.002,0.006 0.004,0.0122 0.002,0.006 0.006,0.0165 0.008,0.0225 0.003,0.006 0.005,0.008 0.008,0.0122 0.003,0.004 0.006,0.0107 0.0187,0.0229 0.0124,0.0121 0.0339,0.0302 0.0572,0.0429 0.0234,0.0126 0.0487,0.02 0.0649,0.0236 0.0162,0.004 0.0238,0.004 0.0299,0.004 0.006,5.2e-4 0.0111,0.002 0.019,0.002 0.008,1.4e-4 0.0191,-5.2e-4 0.0334,-0.004 0.0143,-0.003 0.032,-0.01 0.0447,-0.0142 0.0127,-0.004 0.0215,-0.007 0.028,-0.01 0.006,-0.003 0.0117,-0.006 0.0215,-0.0127 0.01,-0.006 0.025,-0.0155 0.0423,-0.0275 0.0173,-0.012 0.0368,-0.0266 0.0484,-0.036 0.0116,-0.009 0.0159,-0.0142 0.0214,-0.0201 0.005,-0.006 0.0128,-0.0138 0.0189,-0.0248 0.006,-0.011 0.011,-0.0252 0.0134,-0.0362 0.002,-0.011 0.002,-0.0186 0.002,-0.0255 -4.8e-4,-0.007 -0.002,-0.0136 -0.003,-0.0174 -0.001,-0.004 -0.002,-0.005 -0.004,-0.006 -0.001,-0.001 -0.002,-0.002 -0.003,-0.003 -0.001,-0.001 -0.002,-0.002 -0.004,-0.003 -0.002,-0.001 -0.004,-0.002 -0.007,-0.003 -0.003,-9.5e-4 -0.008,-0.002 -0.0147,-0.002 -0.006,-8e-4 -0.0149,-0.002 -0.024,-0.002 -0.009,2e-5 -0.0186,9.9e-4 -0.0255,0.004 -0.007,0.003 -0.0117,0.009 -0.018,0.0207 -0.006,0.0118 -0.0146,0.0305 -0.019,0.0468 -0.004,0.0163 -0.005,0.0304 -0.004,0.0451 8.3e-4,0.0146 0.003,0.0298 0.005,0.0389 0.002,0.009 0.004,0.012 0.006,0.0156 0.002,0.004 0.003,0.008 0.009,0.0159 0.006,0.007 0.0174,0.0181 0.0283,0.0257 0.0109,0.008 0.0218,0.012 0.0317,0.0162 0.01,0.004 0.0184,0.008 0.0254,0.0106 0.007,0.003 0.0126,0.004 0.0162,0.005 0.004,6.6e-4 0.005,6.6e-4 0.01,0.002 0.005,0.001 0.0135,0.003 0.025,0.004 0.0114,0.001 0.0256,0.002 0.0367,0.002 0.0111,3.3e-4 0.0197,3.3e-4 0.0303,-0.002 0.0107,-0.002 0.0239,-0.006 0.033,-0.009 0.009,-0.003 0.0141,-0.004 0.0178,-0.006 0.004,-0.002 0.007,-0.004 0.0109,-0.005 0.004,-0.002 0.009,-0.003 0.0129,-0.004 0.004,-0.001 0.007,-0.003 0.0127,-0.005 0.006,-0.003 0.0155,-0.007 0.022,-0.01 0.007,-0.003 0.0108,-0.006 0.0161,-0.008 0.005,-0.003 0.0119,-0.006 0.0203,-0.0102 0.008,-0.005 0.0181,-0.011 0.0268,-0.0169 0.009,-0.006 0.0165,-0.0112 0.022,-0.0154 0.005,-0.004 0.009,-0.008 0.0125,-0.0108 0.003,-0.003 0.006,-0.005 0.01,-0.008 0.004,-0.004 0.009,-0.009 0.0153,-0.0154 0.006,-0.006 0.015,-0.0137 0.0247,-0.0242 0.01,-0.0104 0.0209,-0.0241 0.0299,-0.0341 0.009,-0.01 0.0159,-0.0164 0.0212,-0.0216 0.005,-0.005 0.01,-0.01 0.0175,-0.016 0.008,-0.006 0.0201,-0.0138 0.0301,-0.0202 0.01,-0.006 0.0187,-0.0121 0.0249,-0.0155 0.006,-0.003 0.0101,-0.005 0.0139,-0.006 0.004,-0.002 0.008,-0.004 0.0116,-0.005 0.004,-0.001 0.008,-0.002 0.0131,-0.003 0.005,-0.002 0.0122,-0.004 0.0176,-0.005 0.005,-0.001 0.009,-0.002 0.0122,-0.003 0.003,-8.2e-4 0.005,-0.002 0.008,-0.003 0.003,-8.1e-4 0.008,-0.002 0.0131,-0.003 0.005,-0.001 0.0108,-0.002 0.0146,-0.003 0.004,-6.5e-4 0.007,-6.5e-4 0.009,-0.001 0.002,-5e-4 0.005,-0.001 0.017,-0.001 0.0115,0 0.0314,10e-4 0.0453,0.003 0.0139,0.002 0.0217,0.004 0.0276,0.006 0.006,0.001 0.01,0.002 0.0132,0.003 0.003,7.7e-4 0.007,0.002 0.009,0.003 0.002,9.4e-4 0.003,0.002 0.004,0.002 0.001,5.8e-4 0.002,5.8e-4 0.003,8.5e-4 5e-4,2.6e-4 5e-4,7.3e-4 0.001,0.001 5e-4,5e-4 0.001,5e-4 0.002,7.7e-4 7.7e-4,2.6e-4 0.001,7.3e-4 0.002,0.001 0.001,5e-4 0.002,5e-4 0.002,10e-4 5e-4,5e-4 5e-4,0.002 0.001,0.002 9.8e-4,8.2e-4 0.003,0.001 0.005,0.002 0.002,7.9e-4 0.005,0.002 0.007,0.002 0.002,4.4e-4 0.005,4.4e-4 0.006,9.4e-4 0.001,5e-4 0.001,0.001 0.001,0.002"
         id="path528"
         inkscape:path-effect="#path-effect569"
         inkscape:original-d="m 180.16346,116.62201 c -0.008,0.0185 -0.0166,0.037 -0.0248,0.0555 -0.002,0.008 -0.005,0.0156 -0.007,0.0234 -0.002,0.0141 -0.003,0.0283 -0.004,0.0424 -0.002,0.0102 -0.004,0.0204 -0.006,0.0307 0,0.006 0,0.0127 0,0.019 0,0.0107 0,0.0214 0,0.0322 5.3e-4,0.002 0.001,0.005 0.002,0.007 5.3e-4,0.006 0.001,0.0127 0.002,0.019 10e-4,0.002 0.002,0.004 0.003,0.006 0.003,0.0102 0.007,0.0205 0.0102,0.0307 0.002,0.002 0.005,0.004 0.007,0.006 0.003,0.006 0.007,0.0127 0.0102,0.019 0.0214,0.018 0.0429,0.0361 0.0643,0.0541 0.0254,0.007 0.0507,0.0146 0.076,0.0219 0.007,0 0.0146,0 0.0219,0 0.005,10e-4 0.01,0.002 0.0146,0.003 0.0112,-5.3e-4 0.0224,-0.001 0.0336,-0.002 0.0175,-0.006 0.0351,-0.0127 0.0526,-0.019 0.008,-0.002 0.0166,-0.005 0.0249,-0.007 0.005,-0.003 0.01,-0.007 0.0146,-0.0102 0.0151,-0.009 0.0302,-0.0185 0.0453,-0.0278 0.0195,-0.0146 0.039,-0.0292 0.0585,-0.0439 0.004,-0.004 0.008,-0.009 0.0117,-0.0131 0.007,-0.008 0.0146,-0.0156 0.0219,-0.0234 0.005,-0.0141 0.01,-0.0283 0.0146,-0.0424 0,-0.008 0,-0.0156 0,-0.0234 -0.001,-0.006 -0.002,-0.0127 -0.003,-0.019 -0.002,-0.001 -0.003,-0.002 -0.004,-0.003 -10e-4,-0.002 -0.002,-0.003 -0.003,-0.004 -0.002,-5.2e-4 -0.003,-0.001 -0.004,-0.002 -0.002,-0.002 -0.004,-0.003 -0.006,-0.004 -0.005,-5.2e-4 -0.01,-0.001 -0.0146,-0.002 -0.008,-0.001 -0.0166,-0.002 -0.0248,-0.003 -0.01,10e-4 -0.0195,0.002 -0.0292,0.003 -0.004,0.005 -0.009,0.0107 -0.0132,0.0161 -0.008,0.0185 -0.0166,0.037 -0.0248,0.0556 -5.3e-4,0.0141 -0.001,0.0282 -0.002,0.0424 0.002,0.0151 0.005,0.0302 0.007,0.0453 0.002,0.003 0.004,0.006 0.006,0.009 0.002,0.004 0.003,0.009 0.004,0.0132 0.0112,0.0107 0.0224,0.0214 0.0336,0.0322 0.0107,0.004 0.0214,0.009 0.0322,0.0131 0.009,0.004 0.0175,0.008 0.0263,0.0117 0.005,0.002 0.0107,0.003 0.0161,0.004 0.002,0 0.003,0 0.004,0 0.009,0.002 0.0175,0.004 0.0263,0.006 0.0141,5.3e-4 0.0283,0.001 0.0424,0.002 0.008,0 0.0166,0 0.0248,0 0.0131,-0.004 0.0263,-0.008 0.0395,-0.0117 0.005,-0.002 0.01,-0.003 0.0146,-0.004 0.003,-0.002 0.006,-0.004 0.009,-0.006 0.005,-0.002 0.01,-0.003 0.0146,-0.004 0.003,-0.002 0.006,-0.003 0.009,-0.004 0.009,-0.004 0.0185,-0.008 0.0278,-0.0117 0.004,-0.002 0.008,-0.005 0.0117,-0.007 0.007,-0.003 0.0136,-0.006 0.0205,-0.009 0.01,-0.006 0.0195,-0.0127 0.0292,-0.019 0.008,-0.005 0.0156,-0.0107 0.0234,-0.0161 0.003,-0.003 0.007,-0.007 0.0102,-0.0102 0.003,-0.002 0.006,-0.004 0.009,-0.006 0.005,-0.005 0.01,-0.0107 0.0146,-0.0161 0.008,-0.007 0.0166,-0.0146 0.0248,-0.0219 0.0112,-0.0136 0.0224,-0.0273 0.0336,-0.0409 0.007,-0.006 0.0137,-0.0127 0.0205,-0.019 0.004,-0.004 0.008,-0.009 0.0117,-0.0131 0.0122,-0.008 0.0244,-0.0156 0.0365,-0.0234 0.008,-0.005 0.0166,-0.0107 0.0248,-0.0161 0.004,-0.002 0.008,-0.003 0.0117,-0.004 0.004,-0.002 0.008,-0.004 0.0117,-0.006 0.004,-5.3e-4 0.008,-10e-4 0.0117,-0.002 0.007,-0.002 0.0137,-0.005 0.0205,-0.007 0.004,-5.3e-4 0.008,-10e-4 0.0117,-0.002 0.002,-0.001 0.004,-0.002 0.006,-0.003 0.004,-5.3e-4 0.009,-0.001 0.0131,-0.002 0.006,-0.002 0.0117,-0.003 0.0175,-0.004 0.002,0 0.005,0 0.007,0 0.003,-0.001 0.006,-0.002 0.009,-0.003 0.02,0.001 0.0399,0.002 0.0599,0.003 0.008,0.002 0.0156,0.005 0.0234,0.007 0.004,5.3e-4 0.008,10e-4 0.0117,0.002 0.003,0.001 0.007,0.002 0.0102,0.003 5.3e-4,0.001 0.001,0.002 0.002,0.003 0.002,0 0.003,0 0.004,0 0,5.3e-4 0,0.001 0,0.002 0.001,0 0.002,0 0.003,0 5.3e-4,5.3e-4 0.001,0.001 0.002,0.002 0.001,0 0.002,0 0.003,0 0,10e-4 0,0.002 0,0.003 0.002,5.3e-4 0.004,10e-4 0.006,0.002 0.002,0.001 0.005,0.002 0.007,0.003 0.002,0 0.005,0 0.007,0 0,0.001 0,0.002 0,0.003"
         transform="translate(-150.55775,49.89981)" />
      <path
         style="fill:#ffffff;fill-opacity:0;stroke:#ffffff;stroke-width:0.03;stroke-linecap:round;stroke-dasharray:none;paint-order:markers fill stroke"
         d="m 171.19472,107.46631 c 0.0187,-0.002 0.0372,-0.004 0.0558,-0.006 -6.7e-4,0.0413 -0.001,0.0827 -0.002,0.12402"
         id="path529"
         inkscape:path-effect="#path-effect574"
         inkscape:original-d="m 171.19472,107.46631 c 0.0187,-0.002 0.0558,-0.006 0.0558,-0.006 0,0 -0.001,0.0827 -0.002,0.12402"
         sodipodi:nodetypes="ccc"
         transform="translate(-140.50359,58.184576)" />
      <path
         style="fill:#ffffff;fill-opacity:0;stroke:#ffffff;stroke-width:0.03;stroke-linecap:round;stroke-dasharray:none;paint-order:markers fill stroke"
         d="m 171.21436,107.58413 c 0.88883,-2e-5 1.77767,-5e-5 2.6665,-7e-5"
         id="path530"
         inkscape:path-effect="#path-effect576"
         inkscape:original-d="m 171.21436,107.58413 c 0.88883,-3e-5 1.77767,-5e-5 2.6665,-7e-5"
         sodipodi:nodetypes="cc"
         transform="translate(-140.50359,58.184576)" />
    </g>
  </g>
</svg>
