<?xml version="1.0" encoding="UTF-8" standalone="no"?>
<!-- Created with Inkscape (http://www.inkscape.org/) -->

<svg
   width="6.8222013mm"
   height="6.0580039mm"
   viewBox="0 0 6.8222013 6.0580039"
   version="1.1"
   id="svg1"
   inkscape:version="1.3 (0e150ed6c4, 2023-07-21)"
   sodipodi:docname="gameAssets.svg"
   xmlns:inkscape="http://www.inkscape.org/namespaces/inkscape"
   xmlns:sodipodi="http://sodipodi.sourceforge.net/DTD/sodipodi-0.dtd"
   xmlns="http://www.w3.org/2000/svg"
   xmlns:svg="http://www.w3.org/2000/svg">
  <sodipodi:namedview
     id="namedview1"
     pagecolor="#505050"
     bordercolor="#ffffff"
     borderopacity="1"
     inkscape:showpageshadow="0"
     inkscape:pageopacity="0"
     inkscape:pagecheckerboard="1"
     inkscape:deskcolor="#505050"
     inkscape:document-units="mm"
     showguides="true"
     inkscape:zoom="128"
     inkscape:cx="655.67969"
     inkscape:cy="407.11328"
     inkscape:window-width="2560"
     inkscape:window-height="1521"
     inkscape:window-x="-9"
     inkscape:window-y="-9"
     inkscape:window-maximized="1"
     inkscape:current-layer="layer8"
     showgrid="false" />
  <defs
     id="defs1">
    <inkscape:path-effect
       effect="bspline"
       id="path-effect312"
       is_visible="true"
       lpeversion="1.3"
       weight="33.333333"
       steps="2"
       helper_size="0"
       apply_no_weight="true"
       apply_with_weight="true"
       only_selected="false"
       uniform="false" />
    <inkscape:path-effect
       effect="bspline"
       id="path-effect310"
       is_visible="true"
       lpeversion="1.3"
       weight="33.333333"
       steps="2"
       helper_size="0"
       apply_no_weight="true"
       apply_with_weight="true"
       only_selected="false"
       uniform="false" />
    <inkscape:path-effect
       effect="bspline"
       id="path-effect308"
       is_visible="true"
       lpeversion="1.3"
       weight="33.333333"
       steps="2"
       helper_size="0"
       apply_no_weight="true"
       apply_with_weight="true"
       only_selected="false"
       uniform="false" />
    <inkscape:path-effect
       effect="bspline"
       id="path-effect306"
       is_visible="true"
       lpeversion="1.3"
       weight="33.333333"
       steps="2"
       helper_size="0"
       apply_no_weight="true"
       apply_with_weight="true"
       only_selected="false"
       uniform="false" />
    <inkscape:path-effect
       effect="bspline"
       id="path-effect304"
       is_visible="true"
       lpeversion="1.3"
       weight="33.333333"
       steps="2"
       helper_size="0"
       apply_no_weight="true"
       apply_with_weight="true"
       only_selected="false"
       uniform="false" />
    <inkscape:path-effect
       effect="bspline"
       id="path-effect302"
       is_visible="true"
       lpeversion="1.3"
       weight="33.333333"
       steps="2"
       helper_size="0"
       apply_no_weight="true"
       apply_with_weight="true"
       only_selected="false"
       uniform="false" />
    <inkscape:path-effect
       effect="bspline"
       id="path-effect300"
       is_visible="true"
       lpeversion="1.3"
       weight="33.333333"
       steps="2"
       helper_size="0"
       apply_no_weight="true"
       apply_with_weight="true"
       only_selected="false"
       uniform="false" />
    <inkscape:path-effect
       effect="bspline"
       id="path-effect298"
       is_visible="true"
       lpeversion="1.3"
       weight="33.333333"
       steps="2"
       helper_size="0"
       apply_no_weight="true"
       apply_with_weight="true"
       only_selected="false"
       uniform="false" />
    <inkscape:path-effect
       effect="bspline"
       id="path-effect296"
       is_visible="true"
       lpeversion="1.3"
       weight="33.333333"
       steps="2"
       helper_size="0"
       apply_no_weight="true"
       apply_with_weight="true"
       only_selected="false"
       uniform="false" />
    <inkscape:path-effect
       effect="bspline"
       id="path-effect294"
       is_visible="true"
       lpeversion="1.3"
       weight="33.333333"
       steps="2"
       helper_size="0"
       apply_no_weight="true"
       apply_with_weight="true"
       only_selected="false"
       uniform="false" />
    <inkscape:path-effect
       effect="bspline"
       id="path-effect292"
       is_visible="true"
       lpeversion="1.3"
       weight="33.333333"
       steps="2"
       helper_size="0"
       apply_no_weight="true"
       apply_with_weight="true"
       only_selected="false"
       uniform="false" />
    <inkscape:path-effect
       effect="bspline"
       id="path-effect285"
       is_visible="true"
       lpeversion="1.3"
       weight="33.333333"
       steps="2"
       helper_size="0"
       apply_no_weight="true"
       apply_with_weight="true"
       only_selected="false"
       uniform="false" />
    <inkscape:path-effect
       effect="bspline"
       id="path-effect247"
       is_visible="true"
       lpeversion="1.3"
       weight="33.333333"
       steps="2"
       helper_size="0"
       apply_no_weight="true"
       apply_with_weight="true"
       only_selected="false"
       uniform="false" />
    <inkscape:path-effect
       effect="bspline"
       id="path-effect245"
       is_visible="true"
       lpeversion="1.3"
       weight="33.333333"
       steps="2"
       helper_size="0"
       apply_no_weight="true"
       apply_with_weight="true"
       only_selected="false"
       uniform="false" />
    <inkscape:path-effect
       effect="bspline"
       id="path-effect243"
       is_visible="true"
       lpeversion="1.3"
       weight="33.333333"
       steps="2"
       helper_size="0"
       apply_no_weight="true"
       apply_with_weight="true"
       only_selected="false"
       uniform="false" />
    <inkscape:path-effect
       effect="bspline"
       id="path-effect241"
       is_visible="true"
       lpeversion="1.3"
       weight="33.333333"
       steps="2"
       helper_size="0"
       apply_no_weight="true"
       apply_with_weight="true"
       only_selected="false"
       uniform="false" />
    <inkscape:path-effect
       effect="bspline"
       id="path-effect239"
       is_visible="true"
       lpeversion="1.3"
       weight="33.333333"
       steps="2"
       helper_size="0"
       apply_no_weight="true"
       apply_with_weight="true"
       only_selected="false"
       uniform="false" />
    <inkscape:path-effect
       effect="bspline"
       id="path-effect237"
       is_visible="true"
       lpeversion="1.3"
       weight="33.333333"
       steps="2"
       helper_size="0"
       apply_no_weight="true"
       apply_with_weight="true"
       only_selected="false"
       uniform="false" />
    <inkscape:path-effect
       effect="bspline"
       id="path-effect234"
       is_visible="true"
       lpeversion="1.3"
       weight="33.333333"
       steps="2"
       helper_size="0"
       apply_no_weight="true"
       apply_with_weight="true"
       only_selected="false"
       uniform="false" />
    <inkscape:path-effect
       effect="bspline"
       id="path-effect230"
       is_visible="true"
       lpeversion="1.3"
       weight="33.333333"
       steps="2"
       helper_size="0"
       apply_no_weight="true"
       apply_with_weight="true"
       only_selected="false"
       uniform="false" />
    <linearGradient
       id="swatch70"
       inkscape:swatch="solid">
      <stop
         style="stop-color:#000000;stop-opacity:1;"
         offset="0"
         id="stop70" />
    </linearGradient>
    <linearGradient
       id="swatch69"
       inkscape:swatch="solid">
      <stop
         style="stop-color:#5f5700;stop-opacity:1;"
         offset="0"
         id="stop69" />
    </linearGradient>
  </defs>
  <g
     inkscape:groupmode="layer"
     id="layer9"
     inkscape:label="UZI"
     transform="translate(-90.861414,-10.557851)">
    <g
       id="g312"
       inkscape:label="Uzi_V1"
       transform="matrix(4,0,0,4,-511.81407,-322.89029)"
       inkscape:export-filename="Finished\UZI_V1.svg"
       inkscape:export-xdpi="96"
       inkscape:export-ydpi="96">
      <path
         style="fill:#ffffff;fill-opacity:0;stroke:#ffffff;stroke-width:0.07;stroke-linecap:round;stroke-dasharray:none;paint-order:markers fill stroke"
         d="m 151.23123,84.119746 -0.006,0.53495 c -0.0916,0.003 -0.19045,0.003 -0.28205,0.002 0,0 -0.0376,-0.007 -0.0481,-0.0204 -0.0147,-0.0194 -0.0111,-0.0482 -0.009,-0.0725 0.0166,-0.19611 0.0643,-0.20807 0.0645,-0.31537 7e-5,-0.0336 -0.001,-0.071 -0.0198,-0.099 -0.0251,-0.0374 -0.11251,-0.0749 -0.11251,-0.0749 -0.0381,-0.01888 -0.0758,-0.04076 -0.11224,-0.0617 -0.003,-0.006 -0.002,-0.0191 -0.002,-0.0191 0.008,-0.129609 0.002,-0.221961 0.007,-0.37297 2.5e-4,-0.0078 0.0562,-0.006 0.0562,-0.006 l 1.16737,2.6e-4 0.001,0.37277 -0.13557,0.002 -0.17666,0.12437 z"
         id="path176"
         sodipodi:nodetypes="cccasaacacscccccc" />
      <path
         style="fill:#ffffff;fill-opacity:0;stroke:#ffffff;stroke-width:0.07;stroke-linecap:round;stroke-dasharray:none;paint-order:markers fill stroke"
         d="m 189.38585,104.99101 c -1e-5,0.0593 -2e-5,0.11851 -3e-5,0.17777 0,0 -0.12192,8.6e-4 -0.12192,8.6e-4 3.2e-4,-0.0599 6.5e-4,-0.11978 9.7e-4,-0.17967"
         id="path184"
         inkscape:path-effect="#path-effect230"
         inkscape:original-d="m 189.38585,104.99101 c -1e-5,0.0593 -3e-5,0.17777 -3e-5,0.17777 l -0.12192,8.6e-4 c 0,0 6.5e-4,-0.11978 9.7e-4,-0.17967"
         sodipodi:nodetypes="cccc"
         transform="translate(-38.236247,-20.328353)" />
      <path
         style="fill:#ffffff;fill-opacity:0;stroke:#ffffff;stroke-width:0.03;stroke-linecap:round;stroke-dasharray:none;paint-order:markers fill stroke"
         d="m 189.75276,103.94301 c 0,0 0.003,-0.1447 0.003,-0.1447"
         id="path185"
         inkscape:path-effect="#path-effect234"
         inkscape:original-d="m 189.75276,103.94301 0.003,-0.1447"
         transform="translate(-38.202057,-20.399431)" />
      <g
         id="g189"
         transform="translate(-37.910523,-21.227329)">
        <path
           style="fill:#ffffff;fill-opacity:0;stroke:#ffffff;stroke-width:0.03;stroke-linecap:round;stroke-dasharray:none;paint-order:markers fill stroke"
           d="m 190.16927,104.11147 c 0.0297,2.7e-4 0.0627,5.8e-4 0.0798,7.4e-4 0.0171,1.5e-4 0.023,2.1e-4 0.0258,0.002 0.003,0.002 0.003,0.005 0.003,0.0364 -1.4e-4,0.0314 -5.1e-4,0.11363 -5.8e-4,0.13064 -8e-5,0.017 -1e-4,0.023 -0.003,0.0252 -0.003,0.002 -0.007,0.002 -0.0199,0.002 -0.0134,1.3e-4 -0.0576,5.5e-4 -0.0832,7.9e-4"
           id="path186"
           inkscape:path-effect="#path-effect237"
           inkscape:original-d="m 190.16927,104.11147 c 0.0297,2.7e-4 0.0627,5.8e-4 0.0909,8.4e-4 0.006,5e-5 0.0119,1.1e-4 0.0176,1.6e-4 -2e-5,0.004 -3e-5,0.007 -5e-5,0.0114 -2.6e-4,0.0583 -6.2e-4,0.14058 -7.7e-4,0.1726 -1e-5,0.002 -3e-5,0.008 -5e-5,0.0124 -0.005,4e-5 -0.009,9e-5 -0.0136,1.3e-4 -0.0222,2.1e-4 -0.0664,6.3e-4 -0.092,8.7e-4"
           sodipodi:nodetypes="cccccacc"
           transform="translate(-0.24263065,0.82728271)" />
        <path
           style="fill:#ffffff;fill-opacity:0;stroke:#ffffff;stroke-width:0.03;stroke-linecap:round;stroke-dasharray:none;paint-order:markers fill stroke"
           d="m 190.28399,104.14868 c 0.0438,-2.9e-4 0.0875,-5.9e-4 0.11238,-7.5e-4 0.0249,-1.7e-4 0.0313,-2.1e-4 0.0344,0.003 0.003,0.003 0.003,0.009 0.003,0.0309 0,0.0222 0,0.0608 0,0.0836 0,0.0228 0,0.0296 -0.003,0.033 -0.003,0.003 -0.009,0.003 -0.0342,0.003 -0.0248,-1.7e-4 -0.0682,-4.6e-4 -0.11161,-7.5e-4"
           id="path187"
           inkscape:path-effect="#path-effect239"
           inkscape:original-d="m 190.28399,104.14868 c 0.0438,-2.9e-4 0.0875,-5.8e-4 0.13127,-8.8e-4 0.006,-4e-5 0.0124,-8e-5 0.0186,-1.2e-4 0,0.006 0,0.0117 0,0.0175 0,0.0386 0,0.0772 0,0.11575 0,0.007 0,0.0138 0,0.0207 -0.006,-4e-5 -0.0124,-9e-5 -0.0186,-1.3e-4 -0.0434,-3.2e-4 -0.0868,-5.8e-4 -0.13021,-8.7e-4"
           sodipodi:nodetypes="cccccccc"
           transform="translate(-0.24366415,0.81384684)" />
        <path
           style="fill:#ffffff;fill-opacity:0;stroke:#ffffff;stroke-width:0.03;stroke-linecap:round;stroke-dasharray:none;paint-order:markers fill stroke"
           d="m 190.44315,104.19726 c 0.0237,-3.3e-4 0.0475,-6.7e-4 0.0713,-0.001 -2.8e-4,0.0225 -5.6e-4,0.0449 -8.4e-4,0.0673 -0.024,3e-5 -0.0481,7e-5 -0.0721,1e-4"
           id="path189"
           inkscape:path-effect="#path-effect241"
           inkscape:original-d="m 190.44315,104.19726 c 0.0237,-3.5e-4 0.0713,-0.001 0.0713,-0.001 -2.8e-4,0.0225 -8.4e-4,0.0673 -8.4e-4,0.0673 0,0 -0.0481,7e-5 -0.0721,1e-4"
           sodipodi:nodetypes="cccc"
           transform="translate(-0.24469765,0.80764567)" />
      </g>
      <path
         style="fill:#ffffff;fill-opacity:0;stroke:#ffffff;stroke-width:0.07;stroke-linecap:round;stroke-dasharray:none;paint-order:markers fill stroke"
         d="m 189.23623,104.13028 c 0.19529,-3.1e-4 0.39058,-6.2e-4 0.58587,-9.3e-4"
         id="path194"
         inkscape:path-effect="#path-effect243"
         inkscape:original-d="m 189.23623,104.13028 c 0.19529,-3.1e-4 0.39058,-6.2e-4 0.58587,-9.3e-4"
         transform="translate(-38.163165,-20.424821)"
         sodipodi:nodetypes="cc" />
      <path
         style="fill:#ffffff;fill-opacity:0;stroke:#ffffff;stroke-width:0.07;stroke-linecap:round;stroke-dasharray:none;paint-order:markers fill stroke"
         d="m 189.23623,104.13028 c 0.19529,-3.1e-4 0.39058,-6.2e-4 0.58587,-9.3e-4"
         id="path196"
         inkscape:path-effect="#path-effect245"
         inkscape:original-d="m 189.23623,104.13028 c 0.19529,-3.1e-4 0.39058,-6.2e-4 0.58587,-9.3e-4"
         transform="translate(-38.165232,-20.332837)"
         sodipodi:nodetypes="cc" />
      <g
         id="g206"
         transform="translate(-38.624853,-20.090642)">
        <path
           style="fill:#ffffff;fill-opacity:0;stroke:#ffffff;stroke-width:0.03;stroke-linecap:round;stroke-dasharray:none;paint-order:markers fill stroke"
           d="m 189.00448,103.94301 c 0,0 0.003,-0.0744 0.003,-0.0744 0,0 0.0962,-0.0765 0.0962,-0.0765 0,0 0.0662,0 0.0662,0 0,0 -0.004,0.14677 -0.004,0.14677"
           id="path203"
           inkscape:path-effect="#path-effect247"
           inkscape:original-d="m 189.00448,103.94301 0.003,-0.0744 0.0962,-0.0765 h 0.0662 l -0.004,0.14677"
           transform="translate(0.48024571,-0.24705853)" />
        <path
           style="fill:#ffffff;fill-opacity:0;stroke:#ffffff;stroke-width:0.03;stroke-linecap:round;stroke-dasharray:none;paint-order:markers fill stroke"
           d="m 189.70107,103.63398 c 0,0 9.3e-4,-0.14262 9.3e-4,-0.14262 -0.0217,-2.9e-4 -0.0433,-5.8e-4 -0.065,-8.7e-4 -0.0369,0.032 -0.0737,0.064 -0.11059,0.096"
           id="path204"
           inkscape:path-effect="#path-effect285"
           inkscape:original-d="m 189.70107,103.63398 9.3e-4,-0.14262 c 0,0 -0.0433,-5.8e-4 -0.065,-8.7e-4 0,0 -0.0737,0.064 -0.11059,0.096"
           transform="translate(0.01240234,-0.00516764)"
           sodipodi:nodetypes="cccc" />
        <path
           style="fill:#ffffff;fill-opacity:0;stroke:#ffffff;stroke-width:0.03;stroke-linecap:round;stroke-dasharray:none;paint-order:markers fill stroke"
           d="m 189.6494,103.5482 c 0,0 0.0641,-0.0599 0.0641,-0.0599"
           id="path205"
           inkscape:path-effect="#path-effect292"
           inkscape:original-d="m 189.6494,103.5482 0.0641,-0.0599" />
        <path
           style="fill:#ffffff;fill-opacity:0;stroke:#ffffff;stroke-width:0.03;stroke-linecap:round;stroke-dasharray:none;paint-order:markers fill stroke"
           d="m 189.6494,103.5482 c 0,0 0.0641,-0.0599 0.0641,-0.0599"
           id="path206"
           inkscape:path-effect="#path-effect294"
           inkscape:original-d="m 189.6494,103.5482 0.0641,-0.0599"
           transform="translate(-0.00310059,0.14676107)" />
      </g>
      <g
         id="g222"
         transform="translate(-37.818701,-20.108212)">
        <path
           style="fill:#ffffff;fill-opacity:0;stroke:#ffffff;stroke-width:0.03;stroke-linecap:round;stroke-dasharray:none;paint-order:markers fill stroke"
           d="m 189.00448,103.94301 c 0,0 0.003,-0.0744 0.003,-0.0744 0,0 0.0962,-0.0765 0.0962,-0.0765 0,0 0.0662,0 0.0662,0 0,0 -0.004,0.14677 -0.004,0.14677"
           id="path207"
           inkscape:path-effect="#path-effect296"
           inkscape:original-d="m 189.00448,103.94301 0.003,-0.0744 0.0962,-0.0765 h 0.0662 l -0.004,0.14677"
           transform="translate(0.48024571,-0.24705853)" />
        <path
           style="fill:#ffffff;fill-opacity:0;stroke:#ffffff;stroke-width:0.03;stroke-linecap:round;stroke-dasharray:none;paint-order:markers fill stroke"
           d="m 189.70107,103.63398 c 0,0 9.3e-4,-0.14262 9.3e-4,-0.14262 -0.0217,-2.9e-4 -0.0433,-5.8e-4 -0.065,-8.7e-4 -0.0369,0.032 -0.0737,0.064 -0.11059,0.096"
           id="path208"
           inkscape:path-effect="#path-effect298"
           inkscape:original-d="m 189.70107,103.63398 9.3e-4,-0.14262 c 0,0 -0.0433,-5.8e-4 -0.065,-8.7e-4 0,0 -0.0737,0.064 -0.11059,0.096"
           transform="translate(0.01240234,-0.00516764)"
           sodipodi:nodetypes="cccc" />
        <path
           style="fill:#ffffff;fill-opacity:0;stroke:#ffffff;stroke-width:0.03;stroke-linecap:round;stroke-dasharray:none;paint-order:markers fill stroke"
           d="m 189.6494,103.5482 c 0,0 0.0641,-0.0599 0.0641,-0.0599"
           id="path221"
           inkscape:path-effect="#path-effect300"
           inkscape:original-d="m 189.6494,103.5482 0.0641,-0.0599" />
        <path
           style="fill:#ffffff;fill-opacity:0;stroke:#ffffff;stroke-width:0.03;stroke-linecap:round;stroke-dasharray:none;paint-order:markers fill stroke"
           d="m 189.6494,103.5482 c 0,0 0.0641,-0.0599 0.0641,-0.0599"
           id="path222"
           inkscape:path-effect="#path-effect302"
           inkscape:original-d="m 189.6494,103.5482 0.0641,-0.0599"
           transform="translate(-0.00310059,0.14676107)" />
      </g>
      <path
         style="fill:#ffffff;fill-opacity:0;stroke:#ffffff;stroke-width:0.07;stroke-linecap:round;stroke-dasharray:none;paint-order:markers fill stroke"
         d="m 188.95901,103.93474 c 0.0289,-0.0276 0.0579,-0.0551 0.0868,-0.0827 0.0124,1e-5 0.0248,2e-5 0.0372,3e-5"
         id="path223"
         inkscape:path-effect="#path-effect304"
         inkscape:original-d="m 188.95901,103.93474 c 0.0289,-0.0276 0.0868,-0.0827 0.0868,-0.0827 0,0 0.0248,2e-5 0.0372,3e-5"
         sodipodi:nodetypes="ccc"
         transform="translate(-38.236247,-20.328353)" />
      <path
         style="fill:#ffffff;fill-opacity:0;stroke:#ffffff;stroke-width:0.07;stroke-linecap:round;stroke-dasharray:none;paint-order:markers fill stroke"
         d="m 189.34554,103.85619 c 0.17984,-6.7e-4 0.35967,-0.001 0.5395,-0.002"
         id="path224"
         inkscape:path-effect="#path-effect306"
         inkscape:original-d="m 189.34554,103.85619 c 0.17984,-6.8e-4 0.35967,-0.001 0.5395,-0.002"
         sodipodi:nodetypes="cc"
         transform="translate(-38.236247,-20.328353)" />
      <path
         style="fill:#ffffff;fill-opacity:0;stroke:#ffffff;stroke-width:0.07;stroke-linecap:round;stroke-dasharray:none;paint-order:markers fill stroke"
         d="m 190.20027,104.35332 c 0,0 0.12299,-0.0496 0.12299,-0.0496"
         id="path225"
         inkscape:path-effect="#path-effect308"
         inkscape:original-d="m 190.20027,104.35332 0.12299,-0.0496"
         transform="translate(-38.267253,-20.73763)" />
      <path
         style="fill:#ffffff;fill-opacity:0;stroke:#ffffff;stroke-width:0.07;stroke-linecap:round;stroke-dasharray:none;paint-order:markers fill stroke"
         d="m 189.89022,105.22251 c 0.035,-0.008 0.0703,-0.0165 0.10541,-0.0248 3.2e-4,-0.0107 6.5e-4,-0.0213 9.7e-4,-0.032"
         id="path226"
         inkscape:path-effect="#path-effect310"
         inkscape:original-d="m 189.89022,105.22251 c 0.0351,-0.008 0.10541,-0.0248 0.10541,-0.0248 0,0 6.5e-4,-0.0213 9.7e-4,-0.032"
         sodipodi:nodetypes="ccc"
         transform="translate(-37.932228,-21.234564)" />
      <path
         style="fill:#ffffff;fill-opacity:0;stroke:#ffffff;stroke-width:0.07;stroke-linecap:round;stroke-dasharray:none;paint-order:markers fill stroke"
         d="m 190.00081,104.92486 c 3e-4,-0.0565 5.9e-4,-0.11299 8.9e-4,-0.16949 -0.053,8e-5 -0.10602,1.5e-4 -0.15903,2.3e-4"
         id="path227"
         inkscape:path-effect="#path-effect312"
         inkscape:original-d="m 190.00081,104.92486 c 3e-4,-0.0565 8.9e-4,-0.16949 8.9e-4,-0.16949 0,0 -0.10602,1.5e-4 -0.15903,2.3e-4"
         sodipodi:nodetypes="ccc"
         transform="translate(-37.932228,-21.234564)" />
    </g>
  </g>
</svg>
