<?xml version="1.0" encoding="UTF-8" standalone="no"?>
<!-- Created with Inkscape (http://www.inkscape.org/) -->

<svg
   width="11.22094mm"
   height="7.9361033mm"
   viewBox="0 0 11.22094 7.9361033"
   version="1.1"
   id="svg1"
   inkscape:version="1.3 (0e150ed6c4, 2023-07-21)"
   sodipodi:docname="gameAssets.svg"
   xmlns:inkscape="http://www.inkscape.org/namespaces/inkscape"
   xmlns:sodipodi="http://sodipodi.sourceforge.net/DTD/sodipodi-0.dtd"
   xmlns="http://www.w3.org/2000/svg"
   xmlns:svg="http://www.w3.org/2000/svg">
  <sodipodi:namedview
     id="namedview1"
     pagecolor="#505050"
     bordercolor="#ffffff"
     borderopacity="1"
     inkscape:showpageshadow="0"
     inkscape:pageopacity="0"
     inkscape:pagecheckerboard="1"
     inkscape:deskcolor="#505050"
     inkscape:document-units="mm"
     showguides="true"
     inkscape:zoom="16"
     inkscape:cx="689.875"
     inkscape:cy="574.09375"
     inkscape:window-width="2560"
     inkscape:window-height="1521"
     inkscape:window-x="-9"
     inkscape:window-y="-9"
     inkscape:window-maximized="1"
     inkscape:current-layer="layer13"
     showgrid="false">
    <sodipodi:guide
       position="104.62146,319.84162"
       orientation="1,0"
       id="guide366"
       inkscape:locked="false" />
  </sodipodi:namedview>
  <defs
     id="defs1">
    <inkscape:path-effect
       effect="bspline"
       id="path-effect598"
       is_visible="true"
       lpeversion="1.3"
       weight="33.333333"
       steps="2"
       helper_size="0"
       apply_no_weight="true"
       apply_with_weight="true"
       only_selected="false"
       uniform="false" />
    <inkscape:path-effect
       effect="bspline"
       id="path-effect586"
       is_visible="true"
       lpeversion="1.3"
       weight="33.333333"
       steps="2"
       helper_size="0"
       apply_no_weight="true"
       apply_with_weight="true"
       only_selected="false"
       uniform="false" />
    <inkscape:path-effect
       effect="bspline"
       id="path-effect584"
       is_visible="true"
       lpeversion="1.3"
       weight="33.333333"
       steps="2"
       helper_size="0"
       apply_no_weight="true"
       apply_with_weight="true"
       only_selected="false"
       uniform="false" />
    <linearGradient
       id="swatch70"
       inkscape:swatch="solid">
      <stop
         style="stop-color:#000000;stop-opacity:1;"
         offset="0"
         id="stop70" />
    </linearGradient>
    <linearGradient
       id="swatch69"
       inkscape:swatch="solid">
      <stop
         style="stop-color:#5f5700;stop-opacity:1;"
         offset="0"
         id="stop69" />
    </linearGradient>
  </defs>
  <g
     inkscape:groupmode="layer"
     id="layer6"
     inkscape:label="ZipBomb"
     transform="translate(-70.020067,-94.775205)">
    <g
       id="g583"
       inkscape:label="ZipOpening"
       transform="translate(-3.2765691,61.555749)">
      <path
         style="fill:#565656;fill-opacity:0;stroke:#ffffff;stroke-width:0.07;stroke-linecap:round;paint-order:markers fill stroke"
         d="m 181.11394,106.87309 c 0,0.008 -1e-5,0.0249 -0.002,0.34361 -0.002,0.31875 -0.006,0.93975 -0.01,1.56075 0,0 2.71124,0.001 2.71124,0.001 0.004,-0.50672 0.008,-1.01343 0.0125,-1.52015 0,-0.0372 1e-5,-0.0744 -0.0124,-0.0932 -0.0125,-0.0188 -0.0374,-0.0191 -0.27795,-0.0212 -0.2406,-0.002 -0.75166,-0.006 -0.97617,-0.008 -0.22451,-0.002 -0.28478,-0.001 -0.31184,-0.0202 -0.027,-0.0191 -0.0271,-0.0619 -0.0275,-0.093 -3.4e-4,-0.0311 -0.001,-0.0669 -0.001,-0.0927 -3.5e-4,-0.0258 -3.8e-4,-0.0457 -0.0146,-0.0556 -0.0143,-0.01 -0.0429,-0.01 -0.21801,-0.01 -0.17514,-7e-5 -0.49691,-1.8e-4 -0.66669,-2.4e-4 -0.16979,-6e-5 -0.18749,-7e-5 -0.19643,-3e-5 -0.009,4e-5 -0.009,1.2e-4 -0.009,1.6e-4 -4e-5,4e-5 4.6e-4,2.2e-4 4.6e-4,0.008 z"
         id="path576"
         inkscape:path-effect="#path-effect584"
         inkscape:original-d="m 181.11394,106.86484 c -1e-5,0.0165 -1e-5,0.0331 -1e-5,0.0496 -0.004,0.62101 -0.012,1.86301 -0.012,1.86301 l 2.71124,0.001 c 0,0 0.008,-1.01343 0.0125,-1.52015 0,0 1e-5,-0.0744 1e-5,-0.11162 -0.0249,-3.4e-4 -0.0498,-6.7e-4 -0.0747,-0.001 -0.4563,-0.004 -0.96736,-0.008 -1.36888,-0.0113 -0.0475,3.6e-4 -0.10777,8.2e-4 -0.16179,0.001 -9e-5,-0.0385 -1.9e-4,-0.0813 -2.7e-4,-0.11527 -4.6e-4,-0.0282 -0.001,-0.064 -0.002,-0.0958 -4e-5,-0.0198 -8e-5,-0.0397 -1.1e-4,-0.0595 -0.0285,-1e-5 -0.0571,-2e-5 -0.0856,-3e-5 -0.32178,-1.1e-4 -0.64355,-2.3e-4 -0.96532,-3.5e-4 -0.0178,0 -0.0355,0 -0.0533,-1e-5 -9e-5,8e-5 -1.8e-4,1.6e-4 -2.7e-4,2.4e-4 z"
         sodipodi:nodetypes="zcccczcczcczcczzz"
         transform="matrix(4,0,0,4,-650.92769,-394.09829)"
         inkscape:export-filename="Finished\ZipBomb_V1.svg"
         inkscape:export-xdpi="96"
         inkscape:export-ydpi="96" />
      <path
         style="fill:#565656;fill-opacity:0;stroke:#ffffff;stroke-width:0.07;stroke-linecap:round;paint-order:markers fill stroke"
         d="m 181.11969,107.50971 c 0.29801,-0.001 0.59601,-0.002 0.89401,-0.003 0.0273,-0.003 0.0546,-0.006 0.0815,-0.0181 0.0269,-0.0121 0.0533,-0.0333 0.0715,-0.057 0.0182,-0.0237 0.0281,-0.0499 0.0341,-0.0766 0.006,-0.0267 0.008,-0.0538 0.01,-0.081 0.53192,-6.7e-4 1.06385,-0.001 1.59577,-0.002"
         id="path577"
         inkscape:path-effect="#path-effect586"
         inkscape:original-d="m 181.11969,107.50971 c 0.29801,-0.001 0.89401,-0.003 0.89401,-0.003 0,0 0.0546,-0.006 0.082,-0.009 0.0264,-0.0212 0.0529,-0.0423 0.0793,-0.0635 0.01,-0.0262 0.0199,-0.0524 0.0298,-0.0786 0.002,-0.0272 0.006,-0.0815 0.006,-0.0815 0,0 1.06385,-10e-4 1.59577,-0.002"
         sodipodi:nodetypes="ccssscc"
         transform="matrix(4,0,0,4,-650.92769,-394.09829)" />
      <path
         id="rect577"
         style="fill:#565656;fill-opacity:0;stroke:#ffffff;stroke-width:0.233952;stroke-linecap:round;paint-order:markers fill stroke"
         d="m 73.413607,38.983668 c 0,0 2.574295,-0.800137 3.901866,-1.00189 1.399831,-0.212735 4.242339,-0.21354 4.242339,-0.21354 h 2.772441 v -0.545186 h -2.7311 c 0,0 -2.761406,-0.02347 -4.12557,-0.210951 -1.332488,-0.183131 -3.935952,-0.888723 -3.935952,-0.888723"
         sodipodi:nodetypes="caccccac" />
      <rect
         style="fill:#ffffff;fill-opacity:1;stroke:#ffffff;stroke-width:0.139712;stroke-linecap:round;paint-order:markers fill stroke"
         id="rect578"
         width="1.4299856"
         height="0.88067704"
         x="81.466866"
         y="37.102623"
         ry="0.082283109" />
      <path
         style="fill:#ffffff;fill-opacity:0;stroke:#ffffff;stroke-width:0.02;stroke-linecap:round;stroke-dasharray:none;paint-order:markers fill stroke"
         d="m 182.04985,107.83424 c 0,0 -0.0723,0.11886 -0.0723,0.11886 0,0 -0.0661,-0.12299 -0.0661,-0.12299 0,0 -0.0745,0.12092 -0.0745,0.12092 -0.0214,-0.0406 -0.0428,-0.0813 -0.0641,-0.12195 -0.0262,0.041 -0.0523,0.082 -0.0785,0.123"
         id="path583"
         inkscape:path-effect="#path-effect598"
         inkscape:original-d="m 182.04985,107.83424 -0.0723,0.11886 -0.0661,-0.12299 -0.0745,0.12092 c 0,0 -0.0428,-0.0813 -0.0641,-0.12195 0,0 -0.0523,0.082 -0.0785,0.123"
         sodipodi:nodetypes="cccccc"
         transform="matrix(-4,0,0,4,811.01779,-394.06001)" />
    </g>
  </g>
</svg>
